<svg width="25" height="23" viewBox="0 0 25 23" fill="none" xmlns="http://www.w3.org/2000/svg">
<path d="M24.9998 16.7655C24.9356 17.0311 24.8761 17.2978 24.8083 17.5622C24.3005 19.5157 22.481 21.0697 20.4403 21.3722C17.7598 21.7694 15.3123 20.1934 14.4822 17.8901C13.6819 15.671 14.6154 13.0132 16.6799 11.7778C18.7254 10.554 21.0955 10.6625 22.9793 12.1046C24.09 12.9555 24.737 14.0892 24.9498 15.4505C24.9594 15.5105 24.9831 15.5682 25.001 15.6271C24.9998 16.007 24.9998 16.3857 24.9998 16.7655ZM22.1385 16.1802C22.1278 14.8028 20.9838 13.7129 19.5626 13.7244C18.1855 13.7359 17.0391 14.864 17.0462 16.1986C17.0534 17.5518 18.2307 18.674 19.6304 18.6625C21.0028 18.6509 22.1492 17.5171 22.1385 16.1802Z" fill="white"/>
<path d="M5.69434 21.5882C5.79423 21.3262 5.86796 21.0514 5.99759 20.8031C9.17997 14.7163 12.3683 8.63061 15.5542 2.54608C15.8563 1.96995 16.1489 1.38921 16.4604 0.817699C17.0111 -0.196005 18.3477 -0.284906 18.9673 0.650288C19.2147 1.02321 19.267 1.43077 19.1029 1.84872C19.0197 2.06116 18.9091 2.26436 18.8032 2.46872C15.3782 9.01161 11.9521 15.5534 8.52946 22.0974C8.29162 22.5523 7.96695 22.8883 7.43061 22.9783C6.53155 23.1261 5.75737 22.4934 5.69434 21.5882Z" fill="white"/>
<path d="M10.8021 6.83295C10.7724 9.74937 8.3452 12.0897 5.37093 12.0677C2.36456 12.0458 -0.0341204 9.66624 0.000367274 6.7302C0.0336657 3.96733 2.33364 1.5797 5.40542 1.56816C8.3892 1.55661 10.8319 3.96041 10.8021 6.83295ZM2.85928 6.80409C2.84857 8.15146 3.97596 9.26792 5.3638 9.28293C6.77422 9.29794 7.93729 8.19533 7.95156 6.83064C7.96583 5.50983 6.80039 4.35642 5.43872 4.34487C4.03067 4.33102 2.87117 5.43709 2.85928 6.80409Z" fill="white"/>
</svg>
