<svg width="37" height="35" viewBox="0 0 37 35" fill="none" xmlns="http://www.w3.org/2000/svg">
<path d="M26.7943 23.8015C25.6649 23.8042 24.5355 23.8036 23.4062 23.8029L21.4274 23.8022C21.044 23.8022 20.6606 23.8022 20.2765 23.8015C19.3937 23.8008 18.4803 23.8001 17.5816 23.8036C16.978 23.8056 16.5022 24.03 16.2425 24.4342C15.9848 24.835 15.9778 25.3538 16.2223 25.8949C16.4008 26.2901 16.5918 26.704 16.7891 27.1236C17.1676 27.9299 17.8129 28.3571 18.6561 28.3599C19.8056 28.3634 20.9551 28.3654 22.099 28.3654C23.3409 28.3654 24.5751 28.3634 25.7927 28.3585C26.6435 28.355 27.2867 27.9216 27.652 27.1041C27.8173 26.7339 27.9736 26.3554 28.125 25.9893L28.2341 25.7254C28.4091 25.3045 28.382 24.878 28.157 24.4926C27.7521 23.7994 27.0304 23.8015 26.7943 23.8015ZM26.1893 25.7199C26.0796 25.972 25.9712 26.2137 25.849 26.4436C25.8191 26.4575 25.7719 26.4721 25.7476 26.4721C23.318 26.4853 20.9447 26.4846 18.6922 26.4714C18.6623 26.4707 18.6012 26.4478 18.5713 26.4283C18.4435 26.2054 18.3303 25.9685 18.2157 25.7199H26.1893Z" fill="white"/>
<path d="M30.6446 23.9563C30.6202 23.9556 30.5966 23.955 30.5723 23.955C29.4569 23.955 28.5241 24.8433 28.4775 25.9664C28.4282 27.1562 29.3242 28.1307 30.5168 28.1848C30.5466 28.1862 30.5765 28.1869 30.6064 28.1869C31.1141 28.1869 31.6044 27.9918 31.9969 27.6327C32.4219 27.2437 32.6789 26.6964 32.7032 26.1317C32.7262 25.5872 32.5282 25.0607 32.1462 24.6474C31.7572 24.2272 31.2099 23.9758 30.6446 23.9563ZM30.7988 26.065C30.7988 26.2039 30.723 26.281 30.5862 26.2824C30.5848 26.2824 30.5834 26.2824 30.582 26.2824C30.5147 26.2824 30.4577 26.2609 30.4174 26.2199C30.3778 26.1796 30.3577 26.1241 30.3591 26.0588C30.3619 25.9352 30.4556 25.8462 30.5827 25.8462C30.5834 25.8462 30.5841 25.8462 30.5855 25.8462C30.7189 25.8476 30.7988 25.9289 30.7988 26.065Z" fill="white"/>
<path d="M13.6122 23.9542C13.6094 23.9542 13.6066 23.9542 13.6038 23.9542C12.4286 23.9542 11.5056 24.8738 11.5 26.0511C11.4952 27.2249 12.4071 28.1626 13.5768 28.1855C13.59 28.1855 13.6025 28.1855 13.6157 28.1855C14.1519 28.1855 14.6846 27.9632 15.0826 27.5729C15.4938 27.1694 15.7285 26.6179 15.7271 26.0601C15.7243 24.9037 14.7756 23.9584 13.6122 23.9542ZM13.6018 26.2824C13.476 26.281 13.3774 26.1859 13.3774 26.0657C13.3774 25.99 13.4128 25.94 13.4427 25.9108C13.4886 25.8664 13.5504 25.8434 13.617 25.8455C13.7441 25.8497 13.831 25.9421 13.8282 26.0706C13.8247 26.2032 13.7414 26.2824 13.6052 26.2824C13.6045 26.2824 13.6032 26.2824 13.6018 26.2824Z" fill="white"/>
<path d="M36.3214 33.9316C36.3027 33.4767 36.0144 33.1419 35.5692 33.0579C35.4018 33.0259 35.2386 33.0252 35.0948 33.0245H35.0483C34.824 33.0224 34.6003 33.0224 34.3787 33.0231C34.3787 32.878 34.3781 32.7328 34.3774 32.589C34.3753 31.8146 34.3732 31.0832 34.3871 30.3442C34.3885 30.2588 34.4281 30.1435 34.4697 30.0219C34.4975 29.9407 34.5267 29.8566 34.5503 29.7656C34.5781 29.658 34.6128 29.5489 34.6496 29.4329C34.742 29.1412 34.8379 28.8398 34.8462 28.5106C34.8761 27.2812 34.8781 25.933 34.851 24.2661C34.8441 23.8459 34.7809 23.3916 34.6573 22.8784C34.5767 22.5457 34.469 22.2192 34.3621 21.9025C34.4607 21.9025 34.56 21.9018 34.6593 21.899C35.4359 21.8817 36.0999 21.3448 36.2388 20.6224C36.3166 20.2168 36.3277 19.7903 36.27 19.3882C36.1624 18.6353 35.5498 18.1164 34.7455 18.0977C34.5135 18.0921 34.2808 18.0935 34.0551 18.0949C33.9585 18.0956 33.8613 18.0963 33.7648 18.0963C32.9528 18.0963 32.4354 18.3311 32.0922 18.8951C31.9964 18.7409 31.911 18.5943 31.8366 18.4429C31.5616 17.8817 31.206 17.1371 30.899 16.3613C30.4489 15.2236 29.703 14.5339 28.6799 14.3068C28.593 13.8928 28.4097 13.4664 27.8019 13.4427C27.2032 13.4191 26.9858 13.8122 26.8684 14.2116H17.2119C17.1258 13.8532 16.9168 13.4545 16.3201 13.442C16.3111 13.442 16.3021 13.442 16.293 13.442C15.5776 13.442 15.4248 14.0408 15.3616 14.3964C14.5511 14.6992 13.9586 15.2722 13.5995 16.1015C13.1633 17.1093 12.8181 17.872 12.4799 18.5742C12.4278 18.6832 12.3646 18.7895 12.2944 18.8992C11.9187 18.2852 11.4387 18.097 10.5212 18.097C10.4816 18.097 10.4427 18.0977 10.4032 18.0984C10.3316 18.0998 10.2635 18.1012 10.2031 18.097C9.43632 18.0449 8.8904 18.1935 8.53547 18.5533C8.05345 19.0416 8.05345 19.7924 8.09582 20.314C8.17083 21.2357 8.86123 21.8886 9.77527 21.9018C9.8482 21.9032 9.92113 21.9032 9.99336 21.9039C9.97669 21.9581 9.96002 22.0116 9.94405 22.065C9.78569 22.5776 9.62246 23.1076 9.59121 23.657C9.49397 25.3843 9.51133 27.1451 9.54051 28.6405C9.54745 29.0051 9.69262 29.3427 9.82041 29.6406C9.8739 29.7649 9.9239 29.8816 9.9628 29.9948C9.98294 30.0532 10.0066 30.1039 10.0267 30.149C10.0378 30.1727 10.0531 30.206 10.0593 30.2241C10.0663 31.0436 10.0656 31.8785 10.0649 32.6849V32.9926H8.7883V32.5557C8.78899 31.9111 8.78899 31.277 8.78691 30.6429C8.78413 29.7344 8.44171 29.0252 7.76937 28.5349C7.56239 28.3842 7.34083 28.28 7.1269 28.18C7.11648 28.1751 7.10607 28.1702 7.09634 28.1654V12.0883C8.92096 11.764 10.4733 10.7006 11.3936 9.1302C12.3528 7.49242 12.4827 5.53306 11.7499 3.75359C11.313 2.693 10.6254 1.81924 9.70164 1.15246L9.70373 1.14899L9.35645 0.914225C9.01611 0.684324 8.32363 0.350935 7.60754 0.161319C7.09843 0.0258795 6.54139 0.000180676 6.1566 0.00295892C6.12187 0.000875238 6.08923 -0.000513886 6.05867 0.000180676C5.77251 0.00365349 5.49885 0.0251849 5.24533 0.0626913C3.83537 0.271755 2.5928 0.925338 1.65028 1.9526C0.709843 2.97846 0.15836 4.28007 0.0562595 5.71643C-0.141691 8.50232 1.68779 11.1083 4.407 11.9119C4.66051 11.9869 4.9175 12.0418 5.16546 12.0946C5.16963 12.0953 5.17449 12.0967 5.17866 12.0974V28.1681C4.00207 28.6474 3.47281 29.4698 3.47281 30.7998V33.0231C3.34501 33.0231 3.2186 33.0238 3.09289 33.0238C2.43166 33.0252 1.80725 33.0266 1.17589 33.0183C1.16686 33.0183 1.15714 33.0183 1.14811 33.0183C0.680671 33.0183 0.332695 33.1773 0.0854312 33.5038L0 33.6156V34.3025L0.0750127 34.4095C0.39729 34.8728 0.867508 34.9262 1.19326 34.9262C1.19395 34.9262 1.19395 34.9262 1.19465 34.9262C9.2606 34.9221 17.462 34.9214 25.3932 34.9207L35.1226 34.92C35.2796 34.92 35.4623 34.9158 35.6435 34.8651C36.0804 34.7443 36.3402 34.3866 36.3214 33.9316ZM13.4328 32.3307L13.4335 32.4765C13.4349 32.6863 13.437 32.9023 13.4245 33.0183C13.3273 33.0259 13.1633 33.0245 13.0147 33.0238C12.9355 33.0231 12.8487 33.0224 12.7542 33.0224C12.7536 33.0224 12.7529 33.0224 12.7522 33.0224C12.6709 33.0224 12.5896 33.0245 12.5084 33.0273C12.3278 33.0322 12.1576 33.0377 12.0076 33.0134C12.002 33.0106 11.9944 33.0072 11.9874 33.0023C11.9701 32.4348 11.9722 31.8625 11.9743 31.3083C11.9743 31.2645 11.9743 31.2214 11.9749 31.1784H13.4321C13.4321 31.2055 13.4321 31.2333 13.4321 31.2603C13.4314 31.6222 13.4307 31.9764 13.4328 32.3307ZM15.3234 31.1735C15.5811 31.1694 15.8256 31.1652 16.0638 31.1826C16.7132 31.2298 17.33 31.0839 17.9503 30.7387C18.1156 30.6463 18.3455 30.5908 18.5663 30.5894C21.1432 30.5727 23.488 30.5734 25.7349 30.5908C26.0009 30.5929 26.2829 30.6595 26.4899 30.77C27.0831 31.086 27.6644 31.2208 28.2673 31.1832C28.534 31.1666 28.8111 31.1707 29.1042 31.1749C29.1112 31.1749 29.1188 31.1749 29.1258 31.1749V32.9974H15.3234V31.1735ZM32.4562 33.0072C32.0659 33.0329 31.6741 33.0266 31.2602 33.0204C31.1851 33.019 31.1094 33.0183 31.0344 33.0169C31.031 32.496 31.0317 31.9764 31.0323 31.4277C31.0323 31.3395 31.0323 31.2506 31.0323 31.161H32.4881C32.4881 31.211 32.4888 31.2603 32.4888 31.3104C32.4916 31.8618 32.4944 32.4314 32.4743 32.9926C32.4687 32.9981 32.4624 33.003 32.4562 33.0072ZM33.9891 20.0223C33.8835 20.0223 33.7793 20.023 33.6765 20.0244C33.6758 20.0112 33.6752 19.9987 33.6752 19.9869C33.7731 19.9813 33.912 19.9813 34.0322 19.9813H34.3767C34.3912 19.9813 34.4065 19.9813 34.4211 19.9813C34.4211 19.9911 34.4211 20.0008 34.4211 20.0105V20.0286C34.2766 20.0237 34.1322 20.0223 33.9891 20.0223ZM32.9709 27.5604C32.9681 27.8584 32.966 28.1563 32.9639 28.4543C32.9604 29.0377 32.7201 29.276 32.1339 29.2781L31.481 29.2801C30.3114 29.2843 29.1015 29.2892 27.9145 29.2669C27.7339 29.2635 27.4929 29.1468 27.3032 29.0454C26.8608 28.8085 26.3906 28.6932 25.8676 28.6932C25.8606 28.6932 25.8537 28.6932 25.8467 28.6932C23.1123 28.7092 20.8341 28.7085 18.6782 28.6918C18.6664 28.6918 18.6539 28.6918 18.642 28.6918C18.0176 28.6918 17.4814 28.821 16.9577 29.0975C16.7605 29.2017 16.5014 29.2656 16.2646 29.2697C15.2616 29.2871 14.2399 29.2843 13.2516 29.2815C12.9418 29.2808 12.6313 29.2794 12.3215 29.2794C11.6402 29.2788 11.4214 29.0648 11.42 28.398C11.4193 28.0258 11.4179 27.6535 11.4158 27.2812C11.4117 26.3199 11.4068 25.326 11.4249 24.3508C11.4506 22.9249 11.9305 21.8518 12.8911 21.0697C13.4835 20.5877 13.9461 19.957 14.3059 19.1423C14.4559 18.8027 14.6115 18.4582 14.7615 18.1248C14.9518 17.7032 15.1484 17.2677 15.3366 16.8357C15.5512 16.3432 15.8694 16.1328 16.4 16.1328C16.4035 16.1328 16.4069 16.1328 16.4097 16.1328C17.7947 16.1397 19.2026 16.1383 20.5639 16.1369C21.1161 16.1362 21.6669 16.1349 22.2197 16.1362C22.7594 16.1362 23.2991 16.1369 23.8388 16.1376C25.1765 16.1397 26.5601 16.1418 27.9221 16.1307C27.9283 16.1307 27.9339 16.1307 27.9402 16.1307C28.4979 16.1307 28.8313 16.3488 29.0521 16.8572C29.2383 17.2851 29.4321 17.7171 29.6189 18.1352C29.7682 18.4679 29.9169 18.7999 30.0641 19.134C30.2572 19.5729 30.4781 19.9556 30.7302 20.289C30.7288 20.289 30.7274 20.2883 30.726 20.2883C30.585 20.2619 30.4482 20.2619 30.3392 20.2619C25.0279 20.2613 19.7165 20.2606 14.4052 20.2633C14.3851 20.2633 14.3635 20.2626 14.3413 20.2626C14.1725 20.2585 13.9406 20.2529 13.7461 20.4036C13.6002 20.5169 13.3432 20.7551 13.255 21.0808C13.1363 21.5226 13.387 21.9477 13.8523 22.0914C14.0524 22.1532 14.2594 22.1616 14.417 22.1616C16.607 22.1637 18.7962 22.1637 20.9862 22.1637H23.3408C25.6543 22.1637 27.9679 22.1637 30.2815 22.1637C30.3051 22.1623 30.3315 22.1644 30.3565 22.1644C30.3857 22.165 30.4156 22.165 30.4461 22.165C30.5246 22.165 30.6087 22.1616 30.6983 22.1463C31.1949 22.0595 31.5088 21.7094 31.5171 21.2316C31.5178 21.1843 31.5151 21.1378 31.5102 21.0933C32.4381 21.8511 32.9104 22.9041 32.9528 24.3119C32.9896 25.3899 32.9806 26.4936 32.9709 27.5604ZM9.97322 20.0348C9.97461 20.0195 9.976 20.0043 9.97669 19.989C10.224 19.9869 10.4615 19.9862 10.6956 19.9945C10.6963 20.005 10.6963 20.0161 10.697 20.0272C10.449 20.0244 10.2128 20.0223 9.97322 20.0348ZM5.36827 30.5324C5.37383 30.3616 5.38841 29.9129 6.14688 29.9129C6.16216 29.9129 6.17813 29.9129 6.1948 29.9136C6.64627 29.924 6.87755 30.1463 6.88172 30.5741C6.88867 31.2284 6.88728 31.8716 6.88589 32.5529C6.88519 32.7085 6.88519 32.8641 6.88519 33.0218C6.85394 33.0218 6.82268 33.0218 6.79143 33.0218C6.29898 33.0224 5.83085 33.0238 5.36619 33.0155C5.35299 32.198 5.34118 31.3555 5.36827 30.5324ZM6.04894 10.2672C4.38269 10.2262 3.15331 9.45803 2.39624 7.98348C1.64333 6.51656 1.73988 5.07187 2.68309 3.68831C3.40613 2.6284 4.4445 2.02483 5.77251 1.89217L5.97324 1.88314C6.13715 1.87619 6.70391 1.86091 7.12968 1.97343C7.42556 2.05192 7.76937 2.18319 8.05762 2.32696C8.1236 2.37628 8.18958 2.41517 8.24932 2.4499C8.26946 2.46171 8.29029 2.47352 8.30974 2.48602C9.95308 3.50008 10.699 5.40804 10.167 7.23266C9.62385 9.09547 7.96871 10.3144 6.04894 10.2672Z" fill="white"/>
<path d="M7.11041 3.20082C6.79091 3.19387 6.46863 3.19526 6.15677 3.19665C5.84422 3.19804 5.52125 3.20012 5.20731 3.19248C5.11562 3.1904 4.8378 3.18345 4.6329 3.38696C4.44745 3.57102 4.43009 3.81759 4.43287 3.98706C4.44259 4.53855 4.44051 5.10114 4.43912 5.64568C4.43843 5.86377 4.43773 6.08117 4.43773 6.29926C4.43773 6.50416 4.43704 6.70905 4.43704 6.91325C4.43565 7.37097 4.43495 7.84397 4.43912 8.31071C4.43981 8.41281 4.43773 8.49894 4.43565 8.57534C4.4294 8.81288 4.42384 9.03722 4.59817 9.21781C4.78293 9.40881 5.01977 9.4109 5.41151 9.41368L5.56431 9.41507C5.57195 9.41507 5.58028 9.41507 5.5907 9.41507C5.70253 9.41507 5.95535 9.40256 6.14288 9.21156C6.27693 9.07473 6.34083 8.88373 6.33319 8.64341C6.32763 8.45796 6.32902 8.2739 6.33041 8.07873C6.3318 7.90787 6.33319 7.73214 6.32972 7.55572C6.59921 7.56475 6.89579 7.56267 7.2521 7.54808C8.10224 7.51474 8.69609 6.98271 8.80305 6.16035C8.86279 5.69985 8.87459 5.24075 8.83778 4.79762C8.75513 3.80578 8.12586 3.22374 7.11041 3.20082ZM6.33875 5.79431C6.33458 5.5276 6.33458 5.25881 6.33527 4.97959C6.54225 4.9789 6.7402 4.9782 6.93607 4.98168C6.94163 5.24561 6.93954 5.51579 6.93746 5.77834V5.77903C6.71659 5.79015 6.52072 5.79431 6.33875 5.79431Z" fill="white"/>
</svg>
