<svg width="33" height="36" viewBox="0 0 33 36" fill="none" xmlns="http://www.w3.org/2000/svg">
<path d="M0.275391 30.6631C0.275391 30.4795 0.275391 30.2967 0.275391 30.1131C0.541115 29.5941 0.981168 29.4211 1.56593 29.4431C2.29371 29.4717 3.02318 29.4496 3.75181 29.4496C4.04377 29.4496 4.33657 29.4496 4.6573 29.4496C4.6573 28.1439 4.659 26.8733 4.65138 25.6036C4.65138 25.5456 4.57691 25.4575 4.51682 25.4354C3.28044 24.9793 2.49258 24.0677 1.87735 22.9971C1.05395 21.5633 0.650282 20.0046 0.450566 18.3863C0.247464 16.7436 0.296547 15.1221 0.764526 13.5194C1.60063 10.6566 3.05788 8.09341 4.81555 5.67543C5.24799 5.08052 6.00962 5.07726 6.42936 5.68114C7.05644 6.58452 7.6412 7.51482 8.24289 8.43534C8.31905 8.55122 8.38421 8.67362 8.45361 8.79359C8.512 8.59202 8.50523 8.40433 8.51369 8.21663C8.55177 7.36467 8.49761 6.49638 8.65078 5.664C9.37179 1.73795 13.5142 -0.730623 17.4942 0.349838C20.5432 1.17732 22.6555 3.80911 22.6936 6.85871C22.713 8.37576 22.6936 9.89281 22.7054 11.4099C22.7062 11.5429 22.7655 11.7175 22.8637 11.8016C24.3801 13.1138 25.9068 14.4146 27.4326 15.7178C27.4901 15.7668 27.5561 15.806 27.6509 15.8729C27.6509 15.7268 27.6509 15.6264 27.6509 15.5261C27.6509 14.63 27.6475 13.734 27.6526 12.838C27.6552 12.3524 27.9784 11.9754 28.4371 11.906C29.0455 11.813 29.5482 12.2145 29.5516 12.8176C29.5592 14.1412 29.5838 15.4657 29.5406 16.7877C29.522 17.3393 29.6887 17.7058 30.1364 18.0501C30.8946 18.6336 31.6012 19.2791 32.3214 19.9075C32.6971 20.2355 32.7648 20.7121 32.5152 21.0965C32.2588 21.4914 31.7756 21.6245 31.2924 21.4351C31.2399 21.4147 31.1849 21.4017 31.1231 21.3829C31.1231 24.0824 31.1231 26.755 31.1231 29.4529C31.355 29.4529 31.5657 29.4423 31.7747 29.4554C32.2825 29.4864 32.6768 29.8389 32.7158 30.2861C32.7581 30.7659 32.4729 31.1446 31.9719 31.2776C31.9228 31.2907 31.878 31.316 31.8306 31.3355C21.6078 31.3355 11.3842 31.3355 1.16142 31.3355C0.761988 31.2401 0.469183 31.0132 0.275391 30.6631ZM29.1793 29.4407C29.1793 29.2913 29.1793 29.1714 29.1793 29.0514C29.1793 26.0581 29.1742 23.0656 29.1877 20.0723C29.1894 19.7745 29.0853 19.5892 28.8653 19.4015C26.3968 17.2994 23.935 15.189 21.4707 13.082C20.9993 12.6788 20.5254 12.279 20.0634 11.8873C20.0101 11.9142 19.9889 11.9207 19.9737 11.9338C17.0033 14.4725 14.0321 17.0105 11.0685 19.5566C10.9763 19.6357 10.9187 19.7989 10.9179 19.923C10.9094 23.0077 10.9111 26.0924 10.912 29.1771C10.912 29.2644 10.9247 29.3509 10.9306 29.4284C11.5594 29.4284 12.1568 29.4284 12.7771 29.4284C12.7771 29.2864 12.7771 29.1656 12.7771 29.0449C12.7771 26.7036 12.7771 24.3615 12.7771 22.0202C12.7771 21.1667 13.1207 20.8313 13.9949 20.8313C15.0823 20.8313 16.1698 20.8313 17.2572 20.8313C18.1602 20.8313 18.4978 21.156 18.4978 22.0284C18.4978 24.3803 18.4978 26.7313 18.4978 29.0832C18.4978 29.1999 18.4978 29.3158 18.4978 29.4407C22.0809 29.4407 25.6055 29.4407 29.1793 29.4407ZM11.6118 16.6041C11.6753 16.5543 11.7498 16.5004 11.82 16.4409C12.5393 15.8272 13.2333 15.1817 13.9847 14.608C14.4603 14.2449 14.6897 13.854 14.6076 13.2688C14.5797 13.0673 14.5424 12.9122 14.3867 12.7653C13.8053 12.2169 13.235 11.6588 12.6663 11.0989C12.2406 10.6787 12.2304 10.1148 12.6307 9.7394C13.0259 9.36972 13.5878 9.39012 14.016 9.79407C14.1929 9.96136 14.3613 10.1368 14.5974 10.371C14.5974 10.1793 14.5974 10.0813 14.5974 9.98421C14.5974 9.21059 14.5966 8.43697 14.5983 7.66335C14.5983 7.56215 14.5991 7.4577 14.6254 7.3614C14.7455 6.91829 15.2017 6.61063 15.6459 6.66368C16.1444 6.72325 16.4956 7.10353 16.4964 7.60622C16.4998 9.09226 16.4981 10.5783 16.4981 12.0652C16.4981 12.1688 16.4981 12.2716 16.4981 12.4381C17.4163 11.6547 18.271 10.9276 19.1224 10.1972C19.7968 9.6178 19.9576 9.59087 20.7793 9.96463C20.7793 9.49376 20.7895 9.04004 20.7768 8.58631C20.7531 7.72292 20.803 6.84729 20.6676 5.9994C20.2403 3.32192 17.3232 1.4556 14.5729 2.04071C12.0714 2.57359 10.4161 4.56151 10.4135 7.03661C10.4118 8.76747 10.4186 10.4975 10.4102 12.2284C10.4068 12.8396 10.4102 13.4451 10.6039 14.0359C10.6674 14.2285 10.7097 14.4309 10.7292 14.6317C10.7994 15.3767 11.0178 16.0598 11.6118 16.6041ZM5.62965 7.81105C4.81555 9.02616 4.14278 10.2649 3.52247 11.5339C2.08553 14.4709 1.8562 17.483 2.87678 20.5766C3.21528 21.6016 3.66549 22.5768 4.52275 23.3129C5.2446 23.9323 6.0147 23.9241 6.73571 23.3072C7.32385 22.8045 7.70298 22.1655 8.01271 21.4841C7.26462 20.9569 7.20115 20.3367 7.912 19.803C8.56277 19.315 8.90043 18.7576 8.93597 17.9416C8.98336 16.8407 9.05022 15.7497 8.80226 14.6643C8.23612 12.1859 7.02174 9.98911 5.62965 7.81105ZM16.5514 29.4382C16.5514 27.1712 16.5514 24.9377 16.5514 22.6919C15.9337 22.6919 15.3379 22.6919 14.7354 22.6919C14.7354 24.9523 14.7354 27.1932 14.7354 29.4382C15.3514 29.4382 15.9404 29.4382 16.5514 29.4382ZM8.96982 23.645C8.88181 23.7519 8.83019 23.8123 8.78026 23.8751C8.26066 24.5337 7.64459 25.0829 6.83387 25.3873C6.62316 25.4665 6.57746 25.5709 6.5783 25.7684C6.58677 26.8986 6.58169 28.0289 6.58338 29.1583C6.58338 29.2464 6.59608 29.3346 6.60454 29.4349C7.40171 29.4349 8.17857 29.4349 8.96898 29.4349C8.96982 27.514 8.96982 25.6076 8.96982 23.645Z" fill="white"/>
<path d="M32.6541 4.14151C32.6524 6.34487 30.778 8.15325 28.4872 8.16223C26.1862 8.17121 24.2897 6.33426 24.294 4.09908C24.2982 1.88593 26.1997 0.0710193 28.499 0.0865244C30.8152 0.102846 32.6567 1.8998 32.6541 4.14151ZM28.4719 6.3008C29.7354 6.30243 30.7551 5.32806 30.7543 4.11948C30.7534 2.92314 29.743 1.94632 28.5007 1.94061C27.2364 1.93489 26.215 2.89703 26.2014 4.10724C26.187 5.30684 27.2144 6.29835 28.4719 6.3008Z" fill="white"/>
<path d="M27.0112 23.9732C27.0112 24.675 27.0137 25.3768 27.0103 26.0794C27.0078 26.7201 26.6126 27.1052 25.9466 27.1069C24.4902 27.1101 23.0346 27.1101 21.5782 27.1069C20.9139 27.1052 20.506 26.7217 20.5035 26.0852C20.4975 24.6709 20.4975 23.2567 20.5035 21.8425C20.506 21.2206 20.9139 20.8346 21.5554 20.833C23.0219 20.8298 24.4885 20.8298 25.9559 20.833C26.616 20.8346 27.0078 21.2223 27.0103 21.867C27.0129 22.5688 27.0112 23.2706 27.0112 23.9732ZM22.4499 25.2275C23.335 25.2275 24.2016 25.2275 25.0775 25.2275C25.0775 24.3706 25.0775 23.5358 25.0775 22.7002C24.1872 22.7002 23.3215 22.7002 22.4499 22.7002C22.4499 23.5554 22.4499 24.3837 22.4499 25.2275Z" fill="white"/>
<path d="M16.8948 35.9138C16.7492 35.9138 16.6003 35.9113 16.4488 35.9073C14.3772 35.8469 13.0968 35.3923 11.967 34.9916C10.7256 34.551 9.65336 34.1707 7.58088 34.2417C5.48217 34.3135 3.38091 34.8284 1.33382 35.7734C0.870073 35.9872 0.314083 35.7987 0.0923638 35.3515C-0.129355 34.9043 0.0661299 34.3682 0.529878 34.1544C2.80885 33.1025 5.1589 32.528 7.51487 32.448C9.95209 32.3639 11.3036 32.8438 12.6102 33.3073C13.7035 33.6949 14.7368 34.0622 16.5055 34.1136C18.743 34.178 20.2688 33.6745 21.7455 33.1865C23.5269 32.5981 25.37 31.9902 28.1364 32.51C29.6715 32.7989 31.1593 33.3669 32.5581 34.2001C32.9956 34.4604 33.131 35.0137 32.8611 35.4356C32.5911 35.8575 32.0174 35.9881 31.5799 35.7277C30.3731 35.0088 29.0944 34.5191 27.7802 34.2719C25.5012 33.8435 24.0406 34.3257 22.348 34.8847C20.8815 35.3687 19.2304 35.9138 16.8948 35.9138Z" fill="white"/>
</svg>
