<svg width="34" height="37" viewBox="0 0 34 37" fill="none" xmlns="http://www.w3.org/2000/svg">
<path d="M33.9933 12.8071V7.97703C33.9933 7.27002 33.7999 6.99559 33.1293 6.75557C31.6611 6.22903 30.192 5.70249 28.7228 5.17689C24.5858 3.69495 20.3082 2.16277 16.1057 0.643623C15.6901 0.493848 15.2985 0.521756 15.0031 0.722697C14.703 0.926429 14.5336 1.28738 14.5394 1.71345C14.5587 3.31632 14.5577 4.94804 14.5567 6.52486C14.5558 7.57143 14.5558 8.65335 14.5606 9.71759C14.5615 9.87667 14.5442 9.89993 14.3826 9.9697C12.2794 10.8693 10.1782 11.7717 8.07692 12.6731C5.69955 13.6936 3.24039 14.7495 0.820689 15.783C0.252083 16.0258 -0.000952235 16.3998 9.87426e-06 16.9943C0.0105931 22.9499 0.0105931 29.1921 9.87426e-06 35.5478C-0.000952235 35.9004 0.0673575 36.4036 0.660979 36.7088L0.724478 36.7413H33.2765L33.34 36.7079C33.7845 36.4771 34 36.0976 34 35.5469C33.9933 27.9679 33.9933 20.2605 33.9933 12.8071ZM14.5259 32.676V34.7682H2.04738V32.676H14.5259ZM14.5538 25.6589C14.5529 26.5873 14.5529 27.5157 14.5529 28.4432V30.661H12.6768V29.2749C12.6768 28.2814 12.6768 27.2887 12.6758 26.2952C12.6748 25.5677 12.2823 25.1835 11.5386 25.1826C9.37865 25.1807 7.21776 25.1817 5.05686 25.1826C4.28909 25.1826 3.89944 25.564 3.89848 26.3166C3.89655 27.4041 3.89752 28.4925 3.89752 29.5912V30.661H2.02814V28.4758C2.02814 24.8449 2.02814 21.2149 2.02621 17.5822C2.02621 17.4082 2.02621 17.4082 2.10414 17.3757C5.41476 15.9635 8.77734 14.5197 12.0293 13.1234L14.5529 12.0396V14.5737C14.5529 18.0362 14.5529 23.6011 14.5538 25.6589ZM10.6352 27.1604V30.6685H5.94873V27.1604H10.6352ZM16.5704 25.8663V2.91444C16.6637 2.947 16.7551 2.97863 16.8446 3.01119L19.7521 4.05311C23.7102 5.47178 27.8021 6.93977 31.8295 8.37705C31.9709 8.42729 31.9786 8.43938 31.9786 8.5873C31.9719 16.183 31.9719 23.9062 31.9719 31.3745V34.7608H30.9703V33.6807C30.9703 32.8286 30.9713 31.9755 30.9694 31.1234C30.9684 30.7782 30.8626 30.4954 30.6615 30.3047C30.4806 30.1326 30.2314 30.047 29.9437 30.048C29.3444 30.0563 28.9566 30.4759 28.9557 31.1169C28.9537 32.0397 28.9547 32.9625 28.9547 33.8956V34.7636H27.8675V32.8425C27.8675 31.275 27.8675 29.7075 27.8675 28.1409C27.8675 27.3269 27.4807 26.9473 26.6524 26.9455C25.1351 26.9418 23.5804 26.9418 21.8986 26.9455C21.0654 26.9473 20.6767 27.3241 20.6767 28.1325C20.6757 29.7605 20.6767 31.3876 20.6767 33.0156V34.7794H19.5905V33.624C19.5905 32.7914 19.5914 31.9588 19.5895 31.1262C19.5886 30.7829 19.4818 30.5001 19.2807 30.3084C19.0988 30.1354 18.8506 30.0433 18.563 30.0489C17.9636 30.0563 17.5749 30.475 17.5739 31.115C17.572 32.0416 17.572 32.9681 17.5729 33.9049V34.7626H16.5714V33.6956C16.5714 31.1876 16.5714 28.6786 16.5704 26.1705C16.5733 26.0998 16.5723 26.0291 16.5714 25.9594C16.5714 25.9277 16.5704 25.897 16.5704 25.8663ZM25.8153 28.9577V34.7719H22.7202V28.9577H25.8153Z" fill="white"/>
<path d="M11.5665 16.1111C10.9046 16.1018 10.2571 16.0953 9.61053 16.1158C9.33248 16.1242 9.03904 16.1856 8.78408 16.286C8.11638 16.5512 7.44098 16.8265 6.78867 17.0926C6.09787 17.3745 5.38399 17.6656 4.67876 17.9447C4.14575 18.1559 3.88983 18.528 3.8956 19.0834C3.9033 19.8769 3.90234 20.6844 3.90041 21.4649C3.89945 21.8296 3.89945 22.1943 3.89945 22.5599C3.90041 23.3915 4.28237 23.7636 5.13865 23.7664C5.88236 23.7683 6.62607 23.7683 7.36882 23.7674H8.26935C8.59166 23.7664 8.91685 23.7674 9.24012 23.7683C9.548 23.7683 9.85972 23.7692 10.1734 23.7692C10.6179 23.7692 11.0652 23.7683 11.5088 23.7664C12.2717 23.7627 12.6758 23.372 12.6758 22.638C12.6777 20.8286 12.6777 19.0201 12.6758 17.2107C12.6758 16.5009 12.2919 16.1204 11.5665 16.1111ZM5.92662 19.6546C5.92565 19.5904 5.93143 19.5681 5.9295 19.5681C5.93143 19.5662 5.94393 19.5569 5.97665 19.5439C6.39035 19.3802 6.80791 19.2071 7.21103 19.0406C7.96148 18.7299 8.73694 18.408 9.5124 18.1382C9.77024 18.048 10.0887 18.0498 10.4254 18.0526C10.4986 18.0526 10.5717 18.0536 10.6467 18.0526V21.757H5.93046C5.93046 21.7403 5.9295 21.7235 5.9295 21.7077C5.9295 21.4705 5.9295 21.2333 5.9295 20.997C5.93046 20.557 5.93143 20.1021 5.92662 19.6546Z" fill="white"/>
<path d="M17.572 15.0991C17.573 15.8666 17.9607 16.2406 18.7554 16.2443C19.4039 16.2471 20.0196 16.2489 20.6094 16.2489C21.229 16.2489 21.8207 16.2471 22.3931 16.2443C23.1619 16.2396 23.5525 15.8592 23.5525 15.1112C23.5534 13.2088 23.5534 11.3073 23.5525 9.40486C23.5525 8.7825 23.3514 8.49969 22.7568 8.28387C22.5605 8.21224 22.3643 8.1406 22.168 8.06897C21.4676 7.81315 20.7431 7.54802 20.0196 7.31265C19.6405 7.18986 19.2153 7.11636 18.7564 7.0959C18.3821 7.07822 18.0877 7.16381 17.8857 7.3508C17.6759 7.54336 17.5739 7.82431 17.573 8.20945C17.571 9.0253 17.571 9.84116 17.572 10.6561V11.6543V12.619C17.571 13.4451 17.571 14.2721 17.572 15.0991ZM19.6146 14.2507V9.25508L19.7733 9.3109C20.1572 9.44579 20.5363 9.57975 20.9153 9.71371C21.2194 9.82162 21.4397 9.89884 21.4888 9.96675C21.5369 10.0328 21.5369 10.2542 21.5369 10.5621V14.2516H19.6146V14.2507Z" fill="white"/>
<path d="M17.5738 24.1683C17.5767 24.8511 17.977 25.2437 18.6716 25.2465C19.3008 25.2484 19.9349 25.2502 20.5699 25.2502C21.1972 25.2502 21.8244 25.2493 22.4498 25.2465C23.1493 25.2437 23.5514 24.8521 23.5524 24.1711C23.5543 22.3049 23.5543 20.4388 23.5524 18.5727C23.5514 17.8842 23.1618 17.5028 22.4546 17.4963C21.1981 17.4861 19.9262 17.4861 18.6735 17.4963C17.9452 17.5019 17.5748 17.8749 17.5729 18.6034C17.571 19.2434 17.571 19.8834 17.5719 20.5235V21.3514V22.2035C17.5719 22.8585 17.571 23.5134 17.5738 24.1683ZM19.6222 23.2724V19.476H21.5146V23.2724H19.6222Z" fill="white"/>
<path d="M29.8745 17.4963C28.6296 17.4861 27.3577 17.4861 26.0934 17.4963C25.3651 17.5019 24.9938 17.8749 24.9918 18.6034C24.9899 19.2573 24.9899 19.9123 24.9909 20.5663V21.3505V22.1738C24.9899 22.8389 24.9899 23.5032 24.9928 24.1683C24.9957 24.8511 25.3959 25.2437 26.0906 25.2465C26.713 25.2484 27.3442 25.2502 27.9801 25.2502C28.6074 25.2502 29.2386 25.2493 29.8688 25.2465C30.5692 25.2437 30.9704 24.8521 30.9713 24.1711C30.9733 22.3533 30.9733 20.4695 30.9713 18.5717C30.9704 17.8842 30.5807 17.5019 29.8745 17.4963ZM28.9432 19.4908V23.2687H27.0315V19.4908H28.9432Z" fill="white"/>
<path d="M24.99 12.8692L24.9891 13.5315C24.9881 14.0767 24.9881 14.6228 24.991 15.1679C24.9948 15.8284 25.3806 16.2284 26.0252 16.2368C26.665 16.2452 27.3202 16.2498 27.987 16.2498C28.6229 16.2498 29.2685 16.2461 29.9208 16.2377C30.5654 16.2293 30.9666 15.8237 30.9686 15.1791C30.9714 14.113 30.9705 13.0264 30.9686 12.0105C30.9676 11.4551 30.7511 11.1509 30.222 10.9593C29.0973 10.5528 27.7657 10.0737 26.4149 9.60202C26.0406 9.47085 25.6866 9.49876 25.4172 9.68016C25.1459 9.8625 24.9939 10.1788 24.991 10.5704C24.9862 11.1072 24.9871 11.6524 24.9881 12.1798C24.99 12.4087 24.99 12.6385 24.99 12.8692ZM27.0316 14.2506V11.911L27.1423 11.951C27.7647 12.1733 28.3545 12.3845 28.9491 12.6059C28.9558 13.0859 28.9558 13.5622 28.9549 14.0674V14.2506H27.0316Z" fill="white"/>
</svg>
