<svg width="33" height="33" viewBox="0 0 33 33" fill="none" xmlns="http://www.w3.org/2000/svg">
<path d="M0 11.137C0.222991 10.666 0.379877 10.1483 0.683074 9.73335C1.46398 8.66271 2.89359 8.25119 4.17953 8.64891C5.46019 9.04576 6.35039 10.1932 6.40327 11.514C6.40768 11.6288 6.41473 11.7435 6.42354 11.9238C6.5628 11.8117 6.66063 11.7357 6.75582 11.6555C8.23479 10.4123 9.8345 9.35979 11.7321 8.83871C12.4126 8.65236 13.13 8.56867 13.836 8.50828C14.5517 8.44789 14.9836 8.89133 14.9985 9.60049C15.0012 9.70833 14.9994 9.81531 14.9994 9.92315C14.9994 16.4643 14.9994 23.0055 14.9977 29.5467C14.9977 29.7495 15.0003 29.9617 14.9448 30.1541C14.8179 30.5967 14.423 30.8382 13.8739 30.8391C11.5329 30.8408 9.19197 30.8399 6.85101 30.8399C6.72057 30.8399 6.591 30.8399 6.4112 30.8399C6.4112 31.0548 6.41473 31.2437 6.41032 31.4335C6.39534 32.0547 6.00312 32.4809 5.36676 32.4886C3.92746 32.5067 2.48727 32.4998 1.04709 32.4912C0.523543 32.4878 0.205363 32.1806 0.000881386 31.7372C0 24.8707 0 18.0043 0 11.137ZM4.35757 30.4474C4.35757 30.3016 4.35757 30.1955 4.35757 30.0885C4.35757 24.0011 4.35757 17.9137 4.35757 11.8263C4.35757 11.7401 4.3611 11.6538 4.35493 11.5684C4.31174 11.0136 3.88427 10.5866 3.3193 10.5322C2.59216 10.4624 2.04922 10.9817 2.04922 11.7651C2.04746 17.906 2.04834 24.0477 2.04922 30.1886C2.04922 30.2714 2.06332 30.3542 2.07126 30.4474C2.83277 30.4474 3.57578 30.4474 4.35757 30.4474ZM12.9238 10.54C12.1975 10.8161 11.5285 11.074 10.856 11.3234C10.6286 11.4079 10.5599 11.5459 10.5608 11.7866C10.5687 17.3495 10.5669 22.9124 10.5669 28.4752C10.5669 28.5891 10.5669 28.7021 10.5669 28.8134C11.3831 28.8134 12.1473 28.8134 12.9246 28.8134C12.9238 22.7493 12.9238 16.705 12.9238 10.54ZM8.48775 28.8246C8.48775 23.499 8.48775 18.2053 8.48775 12.8081C7.82406 13.4388 7.21679 13.9961 6.63772 14.581C6.5108 14.7096 6.42001 14.933 6.42001 15.1133C6.40856 19.5676 6.41032 24.0218 6.41032 28.4761C6.41032 28.59 6.41032 28.703 6.41032 28.8246C7.12953 28.8246 7.7985 28.8246 8.48775 28.8246Z" fill="white"/>
<path d="M26.5964 11.9363C26.5585 11.0659 26.769 10.3507 27.2633 9.72014C28.0818 8.67633 29.5153 8.24587 30.8042 8.66426C32.0994 9.08523 32.9963 10.2628 32.9971 11.5826C33.0015 18.1992 32.9998 24.8157 32.9989 31.4323C32.9989 32.0447 32.5936 32.4786 31.9557 32.4864C30.517 32.5045 29.0765 32.5045 27.6377 32.4864C27.0043 32.4786 26.6087 32.0499 26.5946 31.4314C26.5902 31.2502 26.5937 31.0691 26.5937 30.8379C26.4404 30.8379 26.3135 30.8379 26.1867 30.8379C23.8686 30.8379 21.5497 30.8189 19.2317 30.8482C18.4722 30.8577 17.9982 30.3962 18 29.6405C18.015 22.9921 18.0079 16.3427 18.0097 9.69426C18.0097 8.86267 18.4238 8.46757 19.274 8.50208C21.0202 8.57282 22.5991 9.16201 24.0501 10.0738C24.8237 10.5595 25.5356 11.1401 26.2748 11.6784C26.362 11.7439 26.443 11.8138 26.5964 11.9363ZM30.9399 30.4514C30.9461 30.366 30.9531 30.3143 30.9531 30.2625C30.954 24.079 30.9558 17.8946 30.9461 11.7111C30.9461 11.4955 30.8756 11.26 30.7707 11.0693C30.5232 10.619 29.9716 10.4241 29.4641 10.5655C28.9672 10.7044 28.6457 11.1513 28.6448 11.7206C28.6439 17.8722 28.6439 24.0238 28.6448 30.1754C28.6448 30.2668 28.658 30.3583 28.665 30.4523C29.4351 30.4514 30.1699 30.4514 30.9399 30.4514ZM22.4387 28.8219C22.4387 28.6605 22.4387 28.5329 22.4387 28.4061C22.4387 24.77 22.4387 21.133 22.4387 17.4961C22.4387 15.581 22.4422 13.6659 22.4308 11.7508C22.4299 11.6283 22.3515 11.436 22.2563 11.3954C21.5585 11.0969 20.8467 10.8287 20.0951 10.5345C20.0951 16.699 20.0951 22.7583 20.0951 28.821C20.8775 28.8219 21.6334 28.8219 22.4387 28.8219ZM26.5928 28.8227C26.5928 28.6942 26.5928 28.5993 26.5928 28.5053C26.5928 24.0298 26.5946 19.5544 26.5858 15.0789C26.5858 14.9263 26.5162 14.733 26.4087 14.6269C25.8695 14.0912 25.3074 13.5771 24.7506 13.0586C24.6845 12.9974 24.6017 12.9542 24.5144 12.8938C24.5144 18.2233 24.5144 23.52 24.5144 28.8245C25.2069 28.8227 25.8748 28.8227 26.5928 28.8227Z" fill="white"/>
<path d="M25.6347 4.33428C25.5259 4.33428 25.4179 4.33428 25.309 4.33428C24.2077 4.33428 23.1056 4.33853 22.0043 4.33216C21.5044 4.32933 21.1068 4.05502 21.0208 3.6789C20.9292 3.28086 21.1444 2.89696 21.5748 2.75132C21.749 2.69193 21.9511 2.67213 22.141 2.67072C23.1915 2.66365 24.2421 2.66718 25.2927 2.66718C25.404 2.66718 25.5161 2.66718 25.7173 2.66718C25.4064 2.3964 25.1487 2.16946 24.886 1.94534C24.6177 1.71627 24.5097 1.44267 24.6046 1.12735C24.7862 0.52357 25.6388 0.289554 26.1592 0.721529C27.0338 1.44832 27.8864 2.19562 28.734 2.94574C29.0932 3.26389 29.0875 3.74677 28.7234 4.06775C27.8815 4.8108 27.0305 5.54678 26.1698 6.27358C25.7926 6.59173 25.2084 6.56627 24.8468 6.24954C24.4851 5.9321 24.4769 5.44285 24.8337 5.10491C24.9638 4.98119 25.1037 4.86453 25.2436 4.74858C25.3835 4.63334 25.5291 4.52305 25.6723 4.41064C25.6609 4.38519 25.6478 4.35974 25.6347 4.33428Z" fill="white"/>
<path d="M7.37486 2.67215C7.77017 2.67215 8.16548 2.67215 8.56079 2.67215C9.35713 2.67215 10.1535 2.66789 10.9498 2.67357C11.5866 2.67854 12.0081 3.02736 11.9999 3.52821C11.9925 4.00988 11.5645 4.3445 10.94 4.34663C9.85802 4.35018 8.77522 4.34734 7.69324 4.34734C7.5852 4.34734 7.47799 4.34734 7.36995 4.34734C7.35767 4.36794 7.3454 4.38783 7.33394 4.40843C7.6073 4.64075 7.88884 4.86595 8.15156 5.10608C8.42656 5.35828 8.51004 5.66021 8.36272 5.98985C8.22522 6.29675 7.95186 6.5042 7.57947 6.49994C7.32576 6.49709 7.0082 6.42747 6.83223 6.28326C5.9565 5.56643 5.11023 4.82048 4.26887 4.0724C3.90712 3.75058 3.91203 3.26465 4.27378 2.94353C5.11023 2.20327 5.95486 1.4701 6.80768 0.744047C7.18989 0.418671 7.76362 0.423644 8.13356 0.729128C8.51495 1.04314 8.53214 1.54399 8.16793 1.90133C8.03944 2.02708 7.89867 2.1443 7.75789 2.25939C7.61712 2.37377 7.46898 2.48033 7.32412 2.59045C7.34049 2.61816 7.35767 2.64515 7.37486 2.67215Z" fill="white"/>
</svg>
