<svg width="38" height="35" viewBox="0 0 38 35" fill="none" xmlns="http://www.w3.org/2000/svg">
<path d="M37.8462 1.15787C37.78 1.11403 37.7108 1.05849 37.6368 1.00004C37.446 0.848044 37.2298 0.675591 36.9572 0.626876C35.7926 0.422272 34.7245 0.275151 33.6904 0.176747C30.6436 -0.113597 27.9552 -0.0453952 25.4723 0.386222C23.1704 0.785688 21.262 1.46673 19.6388 2.46734C18.0896 3.42216 16.9202 4.71117 16.2561 6.19601C15.5385 7.80167 15.4372 9.60705 15.964 11.4163C16.1178 11.9444 16.1052 12.4968 16.0682 12.8681C15.9747 13.8005 15.4859 14.5887 14.5288 15.3496C13.5852 16.0998 12.4158 16.6766 10.8481 17.1638C8.08571 18.0221 5.038 18.4586 1.25806 18.5346C0.489802 18.5502 -0.00289535 18.9974 0.000999487 19.6755C0.00294691 19.9893 0.11395 20.2621 0.32135 20.4647C0.547251 20.6849 0.867601 20.8009 1.24832 20.8009C1.26098 20.8009 1.27266 20.8009 1.28532 20.8009C4.86663 20.7307 7.99613 20.2971 10.853 19.4768C12.5599 18.9867 14.5307 18.2949 16.2094 16.8851C17.8199 15.5328 18.5288 13.9086 18.3155 12.0594C18.2532 11.5196 18.1665 10.9779 18.0828 10.4537C18.0487 10.2423 18.0156 10.0309 17.9825 9.81848C17.778 8.47978 18.0088 7.35738 18.6884 6.38697C19.3389 5.45749 20.1909 4.71701 21.2912 4.12269C23.1062 3.14351 25.1626 2.60472 27.9591 2.3777C30.5823 2.16433 33.3515 2.31827 36.4285 2.84635C37.1548 2.97106 37.6544 2.75476 37.9582 2.18674L37.9981 2.11172V1.2592L37.8462 1.15787Z" fill="white"/>
<path d="M36.8367 4.53164C34.639 4.37477 32.6663 4.44882 30.8036 4.75865C29.8513 4.91649 28.6156 5.19027 27.5027 5.90248C26.233 6.71506 25.6877 8.03816 26.0061 9.53177C26.2271 10.5714 26.7442 11.4609 27.1999 12.2472C27.3255 12.4635 27.452 12.6798 27.5796 12.8951C27.973 13.5635 28.379 14.2542 28.7344 14.9509C29.3089 16.0772 29.563 17.222 29.492 18.3541C29.4209 19.4746 29.0762 20.5483 28.4384 21.6346C27.1005 23.9125 25.2495 25.8553 22.7782 27.573C18.4832 30.5602 13.4394 32.1591 6.90579 32.6063C4.99829 32.7368 3.10735 32.7164 1.28554 32.5449C0.935002 32.5127 0.610757 32.6063 0.372198 32.8118C0.150192 33.0028 0.0187414 33.2776 0.00121464 33.5854C-0.03676 34.2753 0.421857 34.7673 1.14338 34.8101C1.94961 34.8589 2.76947 34.9027 3.56207 34.9446C3.89508 34.9621 4.22906 34.9806 4.56207 34.9982L4.57473 34.9992H4.58739C8.08788 34.9349 11.1901 34.5607 14.0723 33.8534C18.2261 32.8352 21.6896 31.2461 24.6614 28.9965C27.1872 27.0849 29.0703 25.0252 30.418 22.7005C32.1551 19.7035 32.2242 16.653 30.6234 13.6326C30.3566 13.1299 30.0635 12.6349 29.7802 12.1556C29.529 11.7298 29.268 11.2904 29.0304 10.852C28.7617 10.356 28.4608 9.76756 28.268 9.16251C28.0333 8.42496 28.2261 7.99237 28.9564 7.62019C29.2028 7.4945 29.4559 7.39122 29.7081 7.31328C30.8143 6.97032 32.0265 6.78423 33.415 6.74526C34.1599 6.72382 34.9214 6.73259 35.6585 6.74136C36.0236 6.74526 36.3897 6.75013 36.7549 6.7511C36.7558 6.7511 36.7568 6.7511 36.7578 6.7511C37.3849 6.7511 37.8542 6.30098 37.8756 5.68132C37.8961 5.05971 37.4598 4.57645 36.8367 4.53164Z" fill="white"/>
<path d="M22.7464 20.7062C23.1077 20.9108 23.4952 21.0443 23.7786 21.1417C23.8701 21.1729 23.9509 21.2011 24.0132 21.2255L24.0707 21.2479L24.133 21.2489C24.169 21.2498 24.2109 21.2498 24.2567 21.2498C24.7211 21.2498 25.615 21.1816 25.69 20.2648C25.7221 19.8732 25.6228 19.1853 24.6014 18.9885C24.3083 18.932 24.0181 18.8277 23.7649 18.6864C22.5731 18.0229 21.3794 18.0044 20.3141 18.6329C19.6306 19.0362 19.095 19.0401 18.467 18.6475C17.8438 18.2578 17.2148 18.1155 16.5994 18.2237C15.9694 18.3347 15.6325 18.7624 15.6744 19.3977C15.7085 19.9258 16.1018 20.3379 16.6763 20.449C16.9967 20.5113 17.3297 20.5883 17.5975 20.7344C18.8263 21.4028 20.0317 21.394 21.1778 20.7091C21.7163 20.3895 22.1856 20.3876 22.7464 20.7062Z" fill="white"/>
<path d="M3.71024 28.5113C3.36847 28.3242 3.00235 28.1985 2.64792 28.0777C2.49894 28.0261 2.34412 27.9735 2.19807 27.9179L1.88064 27.7971L1.80372 27.9988C1.19709 28.0651 0.821242 28.4314 0.783267 29.0121C0.757951 29.4057 0.872849 30.0877 1.92543 30.2397C2.15912 30.2738 2.4152 30.3654 2.64695 30.4979C3.26915 30.8555 3.88745 31.0338 4.497 31.0338C5.0968 31.0338 5.68882 30.8603 6.26817 30.5145C6.81929 30.1851 7.28667 30.1793 7.88161 30.4921C8.35191 30.7395 8.93711 30.9149 9.57392 30.9987C9.89719 31.0406 10.2 30.9568 10.4269 30.7619C10.6596 30.5612 10.7959 30.2553 10.8027 29.9211C10.8135 29.3287 10.3753 28.8581 9.71316 28.748C9.39281 28.6954 9.12212 28.6077 8.90985 28.4889C7.66058 27.7913 6.43176 27.7961 5.25649 28.5025C4.73361 28.8153 4.2711 28.8172 3.71024 28.5113Z" fill="white"/>
<path d="M14.946 21.8147C14.6471 21.7504 14.2624 21.6549 13.946 21.4883C12.7288 20.8453 11.5575 20.8521 10.463 21.5078C9.87296 21.8615 9.3676 21.8605 8.72008 21.5059C8.19818 21.2194 7.59448 21.1074 7.12709 21.0401C6.82622 20.9973 6.53605 21.0772 6.3082 21.2652C6.06867 21.462 5.92164 21.7592 5.90509 22.0797C5.87296 22.6974 6.28094 23.1729 6.94501 23.2898C7.1787 23.3307 7.52047 23.4038 7.79214 23.5548C8.39486 23.89 9.00051 24.0576 9.60519 24.0576C10.2196 24.0576 10.833 23.8851 11.4416 23.5392C11.6042 23.4467 11.796 23.3785 11.9995 23.3054C12.0648 23.282 12.13 23.2586 12.1962 23.2333C12.2673 23.2616 12.3374 23.2888 12.4075 23.3151C12.6363 23.4038 12.8525 23.4866 13.0473 23.5919C13.7084 23.9504 14.3004 24.0917 14.908 24.0381C15.5039 23.9845 15.9265 23.5061 15.9129 22.9011C15.9012 22.374 15.5127 21.9365 14.946 21.8147Z" fill="white"/>
<path d="M20.4485 25.6877C20.2051 25.6419 19.8477 25.562 19.5615 25.4071C18.3239 24.7378 17.1194 24.7436 15.9792 25.4256C15.43 25.754 14.948 25.7559 14.3667 25.4325C14.0415 25.2512 13.6939 25.1295 13.357 25.0125C13.208 24.9609 13.0678 24.9112 12.9286 24.8576L12.6131 24.7349L12.5352 24.9317C11.9393 24.9872 11.5196 25.373 11.4602 25.945C11.4047 26.4837 11.8059 27.0147 12.3726 27.1541C12.7582 27.2486 13.1554 27.347 13.4884 27.5175C14.0707 27.8146 14.6423 27.9637 15.1993 27.9637C15.7845 27.9637 16.3531 27.7991 16.9013 27.4697C17.5177 27.0995 18.0464 27.0995 18.616 27.4678C19.1136 27.7893 19.6793 27.953 20.3005 27.953C20.3073 27.953 20.3141 27.953 20.3219 27.953C20.9578 27.9491 21.4553 27.4824 21.4787 26.8676C21.4992 26.2821 21.0863 25.8076 20.4485 25.6877Z" fill="white"/>
</svg>
