<svg width="37" height="37" viewBox="0 0 37 37" fill="none" xmlns="http://www.w3.org/2000/svg">
<path d="M34.2517 24.7781C34.6744 24.5795 34.9826 24.2571 35.1244 23.8504C35.3173 23.3 35.1802 22.6683 34.7566 22.1596C34.6403 22.0206 34.5401 21.8589 34.4333 21.6886C34.4333 21.6877 34.4323 21.6867 34.4314 21.6858C36.329 19.6942 37.1421 17.3187 36.849 14.6217C36.6164 12.4769 35.6945 10.7596 34.1099 9.51607C32.3844 8.16282 30.2958 7.4602 27.5349 7.30511C26.5157 7.24837 25.4823 7.25593 24.4819 7.2635C23.9118 7.26823 23.3228 7.27295 22.7451 7.26444C22.3593 7.25972 21.9726 7.25688 21.5859 7.25499C19.675 7.24364 17.6999 7.23135 15.7985 6.86065C14.9788 6.70083 14.3481 6.52115 13.813 6.29514C13.5927 6.20246 13.4546 6.0644 13.4442 5.92728C13.4338 5.7807 13.5586 5.61332 13.7789 5.47903C14.2214 5.20952 14.6204 5.0497 14.9636 5.00431C16.5984 4.78681 18.2681 4.62888 19.6854 4.50405C20.9846 4.38963 21.9036 3.41276 21.8705 2.18151C21.8535 1.56777 21.6086 1.00699 21.1793 0.602249C20.7472 0.194669 20.1658 -0.0190512 19.5379 0.00080776C17.8455 0.0547105 16.4604 0.126581 15.1792 0.228712C13.8139 0.337464 12.494 0.599412 11.2554 1.00888C10.239 1.34459 9.38051 1.78622 8.64397 2.35267C8.57022 2.24487 8.49742 2.13801 8.42367 2.03115C8.07005 1.51292 7.73251 1.02212 7.41861 0.509574C7.22762 0.197506 6.86455 0.0074274 6.44664 -0.000137903C6.03157 -0.00959453 5.6581 0.172918 5.45387 0.481204C4.88941 1.33419 4.30794 2.19664 3.74442 3.03071C3.19225 3.84871 2.62117 4.69413 2.06617 5.53199C1.78063 5.96416 1.71539 6.48616 1.88936 6.96467C2.04159 7.38454 2.3536 7.7108 2.75922 7.88007L2.4472 8.34345C1.73997 9.39219 1.03464 10.44 0.325516 11.4859C-0.0592999 12.0542 -0.103738 12.65 0.197874 13.2089C0.495705 13.7621 1.01289 14.0534 1.69365 14.0534C1.69743 14.0534 1.70121 14.0534 1.70405 14.0534C2.47746 14.0496 3.26506 14.0515 4.02618 14.0534H4.21339C4.22 14.0534 4.22568 14.0534 4.2323 14.0534V14.1517C4.2323 14.5697 4.23135 14.9886 4.23135 15.4075C4.2304 16.4005 4.22851 17.4275 4.23608 18.4375C4.24364 19.4228 4.88374 20.0678 5.86611 20.0791C6.17434 20.0829 6.50432 20.0829 6.93452 20.0791C7.97078 20.0716 8.61466 19.4181 8.6156 18.375C8.61655 17.3603 8.61655 16.3466 8.61655 15.3319V14.0515C8.79808 14.0515 8.97773 14.0515 9.15548 14.0524C9.85893 14.0534 10.5246 14.0543 11.1996 14.0496C12.0799 14.043 12.7512 13.4538 12.8335 12.6159C12.8429 12.5185 12.8401 12.4249 12.8316 12.3332C14.8663 12.8959 16.6892 13.1833 18.393 13.2108C20.8408 13.2514 23.3152 13.2079 25.4435 13.1644C26.4892 13.1436 27.3269 13.2429 28.0767 13.4793C28.5854 13.6401 28.9692 14.1716 28.9503 14.6907C28.9276 15.296 28.3509 15.5125 28.0086 15.5882C27.6796 15.661 27.3156 15.7026 26.927 15.712C26.1384 15.7319 25.3348 15.7442 24.5576 15.7565C23.1649 15.7782 21.7249 15.8 20.3076 15.8662C18.0904 15.9683 15.8552 16.3769 13.6645 17.0804C9.14603 18.5311 5.65243 21.213 3.28207 25.0514C1.73903 27.5499 0.719787 30.3188 0.165728 33.517C0.12318 33.76 0.0881971 34.0059 0.0532139 34.2433L0.030522 34.4002C-0.13683 35.5454 0.357663 36.3351 1.63408 36.9611L1.71256 36.9999H10.013L10.1208 36.9025C10.1246 36.8987 10.1284 36.8949 10.1322 36.8911C11.0342 36.5743 11.5561 35.8726 11.645 34.8579C11.8189 32.8683 12.4184 30.9609 13.4792 29.0279C14.4247 27.303 15.9271 26.0595 18.0696 25.2245L18.1273 25.2018C18.3778 25.1034 18.6151 25.0117 18.8553 24.9521C18.8941 24.9427 18.9338 24.9342 18.9735 24.9266L18.5575 25.5441C17.941 26.4614 17.3028 27.4099 16.6703 28.3376C16.2514 28.9513 16.1937 29.5509 16.4982 30.1202C16.8007 30.6857 17.3245 30.9732 18.0535 30.9732C18.0601 30.9732 18.0677 30.9732 18.0743 30.9732C18.7258 30.9684 19.3687 30.9694 20.0485 30.9703C20.2092 30.9703 20.3709 30.9713 20.5336 30.9713V30.9873C20.5336 31.3902 20.5354 31.7921 20.5373 32.195C20.5421 33.1416 20.5468 34.1213 20.5241 35.0811C20.5014 36.0287 20.8815 36.6471 21.6871 36.9724L21.7551 36.9999H23.7501L23.8239 36.9668C24.5982 36.6178 24.9613 35.9804 24.9358 35.0178C24.9112 34.0853 24.9159 33.133 24.9216 32.212C24.9235 31.8186 24.9263 31.4261 24.9263 31.0327V30.9996H28.3887C28.3887 31.4006 28.3906 31.8016 28.3925 32.2025C28.3972 33.1482 28.4029 34.1269 28.3783 35.0849C28.3537 36.0343 28.7357 36.6519 29.5451 36.9724L29.6122 36.9989H31.6072L31.6828 36.9639C32.4506 36.6112 32.8098 35.9738 32.7824 35.014C32.756 34.0825 32.7616 33.1321 32.7673 32.2129C32.7701 31.8195 32.772 31.4271 32.772 31.0337V30.9713C32.7786 30.9713 32.7843 30.9713 32.79 30.9713C33.0065 30.9713 33.223 30.9684 33.4395 30.9656C33.9633 30.959 34.5051 30.9533 35.0308 30.9779C35.982 31.0195 36.6334 30.6337 36.9691 29.827L36.9984 29.757V28.9305L34.2517 24.7781ZM30.7799 30.9892V35.0168H30.3818V30.9892H30.7799ZM22.9219 30.994V35.0234H22.5314V30.994H22.9219ZM6.62818 14.0713V18.097H6.23674V14.0713H6.62818ZM30.8905 15.0331C31.038 13.7621 30.5425 12.7048 29.4581 11.9757C28.8104 11.5407 28.0001 11.2977 27.1142 11.2731C25.5068 11.2277 23.9071 11.2608 22.3612 11.293C19.4519 11.3535 16.3356 11.2892 13.257 10.4201C13.0358 10.3577 12.8183 10.2764 12.5876 10.1913C12.443 10.1374 12.2936 10.0825 12.1432 10.0315C11.5022 9.81584 11.072 9.46878 10.7874 8.94016C10.5907 8.57419 10.3496 8.23186 10.1161 7.90088C10.1076 7.88858 10.0991 7.87723 10.0915 7.86494C10.4801 7.69661 10.7808 7.40157 10.9377 7.02235C11.1344 6.54574 11.0786 6.00104 10.7827 5.52726C10.6522 5.31827 10.5123 5.11401 10.3771 4.91731C10.3128 4.82369 10.2485 4.73007 10.1851 4.6355C10.0452 4.42745 9.9062 4.21846 9.76249 4.0038C10.1416 3.6662 10.604 3.39101 11.2242 3.13001C12.3229 2.66852 13.517 2.38104 14.8748 2.25432C16.1427 2.13517 17.4418 2.06897 18.6974 2.00467C18.9706 1.99048 19.243 1.9763 19.5162 1.96211C19.6694 1.9536 19.7951 1.9867 19.8566 2.0529C19.9171 2.11815 19.919 2.21839 19.9095 2.2912C19.8991 2.37158 19.8831 2.50492 19.554 2.5314C19.173 2.56166 18.7834 2.58625 18.4062 2.60989C18.0195 2.63353 17.6195 2.65907 17.2253 2.69027L17.178 2.69406C15.9867 2.79051 14.7547 2.88981 13.5861 3.35507C13.1795 3.51678 12.7985 3.7305 12.4836 3.97165C11.7944 4.50122 11.4284 5.25586 11.4795 6.0417C11.5306 6.83038 11.9939 7.53585 12.7493 7.97558C13.5832 8.46071 14.507 8.64795 15.46 8.81155C18.1963 9.28249 20.9846 9.25885 23.6802 9.23521C23.961 9.23237 24.2418 9.23048 24.5226 9.22859L24.6001 9.22764C26.32 9.21629 27.9443 9.20494 29.5677 9.58415C30.7326 9.85651 31.645 10.2253 32.4402 10.7454C33.9104 11.7072 34.7349 13.1285 34.889 14.9688C35.0478 16.8648 34.5108 18.5538 33.2911 19.994L33.0368 19.6157C32.5621 18.9103 32.0865 18.2048 31.6128 17.4975C31.4332 17.2298 31.1637 16.9216 30.6636 16.9064C30.1899 16.8903 29.8296 17.0757 29.5696 17.4663C28.8255 18.5821 28.0616 19.7131 27.3222 20.8063C27.1 21.1354 26.8778 21.4645 26.6556 21.7936L23.8919 17.697C24.1794 17.6951 24.4659 17.6942 24.7533 17.6932C25.6364 17.6894 26.5497 17.6856 27.4498 17.6601C27.8573 17.6488 28.3102 17.5674 28.7953 17.419C30.0291 17.0417 30.7534 16.2161 30.8905 15.0331ZM2.64387 11.589C3.49008 10.3331 4.36467 9.03472 5.22885 7.75997C5.37634 7.54247 5.68363 7.0895 5.39903 6.5552C5.10215 5.99631 4.51594 6.01333 4.2947 6.01995C4.23419 6.02184 4.17368 6.02279 4.11127 6.02373L6.42395 2.59287L8.74608 6.02279C8.6487 6.02279 8.55415 6.02184 8.45865 6.0209C7.99631 6.01333 7.65876 6.18544 7.4621 6.5325C7.15576 7.07247 7.47061 7.5349 7.57367 7.68716C8.45014 8.97704 9.32283 10.2688 10.1965 11.5606L10.5246 12.0457H2.33564L2.64387 11.589ZM26.3814 24.7715L26.6622 24.6429L26.9336 24.7687L26.6575 25.1781L26.3814 24.7715ZM19.016 28.4038C19.8585 27.1555 20.7009 25.9072 21.5452 24.6599C21.6946 24.4396 22.0057 23.9809 21.6956 23.4447C21.3892 22.9152 20.8333 22.9312 20.6234 22.9379C20.5553 22.9398 20.4863 22.9407 20.4163 22.9416L22.7318 19.5089L25.0558 22.9416C24.967 22.9416 24.88 22.9398 24.7939 22.9379C24.3042 22.9218 23.9591 23.1024 23.7615 23.4665C23.4721 24.0008 23.786 24.4623 23.8901 24.6145C24.7306 25.8505 25.5825 27.1092 26.4051 28.3272L26.8268 28.9504H18.6473L19.016 28.4038ZM27.9595 26.7678C28.297 26.3063 28.6175 25.825 28.9276 25.3597C29.0912 25.1148 29.2538 24.8698 29.4202 24.6268C29.5356 24.4575 29.8429 24.0093 29.5668 23.4826C29.2699 22.9152 28.6903 22.9331 28.4993 22.9388C28.4237 22.9416 28.3481 22.9426 28.2705 22.9426L30.5823 19.5089L32.9063 22.9416C32.8136 22.9416 32.7229 22.9398 32.634 22.9379C32.1414 22.9275 31.7953 23.1081 31.6024 23.4807C31.3273 24.0131 31.6403 24.4727 31.7424 24.623C32.6274 25.9224 33.5237 27.2472 34.3898 28.5277L34.6791 28.9551H29.0903C28.9135 28.4426 28.6062 28.0274 28.3065 27.6236C28.1883 27.4638 28.0767 27.3134 27.9736 27.1583C27.8365 26.9503 27.846 26.9229 27.9595 26.7678ZM7.21438 35.0348C5.65999 35.0329 4.0536 35.03 2.47179 35.0461C2.27891 35.0509 2.13235 35.0064 2.06522 34.9298C1.98202 34.8343 1.98958 34.6546 2.00944 34.5203C2.49353 31.3079 3.45321 28.5627 4.9452 26.1266C7.14536 22.5341 10.3156 20.1538 14.6384 18.8507C16.5398 18.2776 18.5896 17.9344 20.9051 17.801C21.1094 17.7897 21.3145 17.7774 21.5244 17.7651C21.3854 17.9712 21.2465 18.1764 21.1084 18.3817C20.2102 19.7113 19.3621 20.968 18.5074 22.2551C18.3958 22.4234 18.3306 22.6059 18.2729 22.7676C18.236 22.8726 18.2001 22.971 18.1585 23.0532C18.1471 23.0721 18.1074 23.1052 18.0866 23.1128C16.5143 23.6603 15.2274 24.3393 14.1524 25.1857C12.4751 26.5087 11.5551 28.2922 10.8772 29.862C10.2447 31.3278 9.84664 32.9146 9.66037 34.7123C9.63106 34.9979 9.62728 35.0348 9.2661 35.0357C8.58157 35.0367 7.89797 35.0357 7.21438 35.0348Z" fill="white"/>
</svg>
