<svg width="35" height="35" viewBox="0 0 35 35" fill="none" xmlns="http://www.w3.org/2000/svg">
<path d="M34.8263 12.13C34.5678 11.1081 34.0954 10.1255 33.6169 9.17626C31.6825 5.34005 28.7125 2.5763 24.7753 0.870465C23.9494 0.512693 23.0669 0.286731 22.2101 0C21.8455 0 21.4809 0 21.1163 0C20.5728 0.152353 20.0198 0.27646 19.4883 0.46305C18.7908 0.708697 18.2147 1.15976 17.6943 1.67588C15.9645 3.39028 14.2313 5.10125 12.516 6.82934C11.0541 8.30237 10.4892 10.0733 10.9711 12.1018C11.1363 12.7985 11.5035 13.4481 11.7894 14.1149C11.8964 14.364 12.0359 14.5993 12.1976 14.9117C12.0975 14.9862 11.9768 15.0564 11.881 15.1514C8.19367 18.8353 4.50554 22.5183 0.82767 26.2115C0.514405 26.5265 0.273893 26.9134 0 27.2669C0 29.4991 0 31.7313 0 33.9644C0.332951 34.7655 0.945786 35.0172 1.78886 34.9992C3.59912 34.9598 5.41024 34.9881 7.2205 34.9872C7.64845 34.9872 7.99339 34.8828 8.24588 34.6851C8.57199 34.43 8.74488 34.0192 8.74574 33.4723C8.74659 32.7122 8.74574 31.953 8.74574 31.1604C8.88953 31.1604 9.0008 31.1604 9.11207 31.1604C9.8182 31.1604 10.5243 31.1673 11.2305 31.157C11.8792 31.1476 12.4168 30.7034 12.5469 30.0751C12.5811 29.9099 12.5717 29.7353 12.5725 29.565C12.5751 28.8289 12.5734 28.0928 12.5734 27.3319C13.4139 27.3319 14.2142 27.3422 15.0127 27.3294C15.0282 27.3302 15.0427 27.3311 15.0581 27.3311C15.8045 27.3311 16.4096 26.7542 16.4216 26.001C16.4353 25.1836 16.425 24.3653 16.425 23.5043C17.1859 23.5043 17.922 23.506 18.6581 23.5034C18.8284 23.5026 19.003 23.512 19.1682 23.4777C19.5654 23.3956 19.888 23.1508 20.0746 22.8178C20.7568 23.179 21.4415 23.53 21.8969 23.7268C22.4404 23.9613 23.0455 24.1197 23.6352 24.1685C25.3394 24.3097 26.8107 23.7345 28.0261 22.5311C29.7901 20.7842 31.5584 19.0407 33.3045 17.2766C34.7253 15.8413 35.3262 14.1038 34.8263 12.13ZM31.4104 15.2858C29.6403 17.0755 27.8532 18.8472 26.0583 20.6113C25.1288 21.5245 23.9999 21.7086 22.8264 21.1514C22.0578 20.7859 20.346 19.8375 19.5885 19.4472C18.8438 19.0638 18.0512 19.2803 17.6746 19.9719C17.536 20.227 17.4803 20.4983 17.5052 20.7576C17.3811 20.7645 17.2758 20.7739 17.1705 20.7739C16.4644 20.7756 15.7582 20.7688 15.0521 20.7765C14.2878 20.785 13.7041 21.3491 13.6972 22.1083C13.6895 22.9385 13.6886 23.7688 13.6912 24.5998C12.8524 24.5973 12.0145 24.5981 11.1757 24.6058C10.4165 24.6127 9.85244 25.1964 9.84388 25.9608C9.83617 26.6669 9.84302 27.373 9.84131 28.0791C9.84131 28.1887 9.83104 28.2974 9.82419 28.4292C8.98711 28.4292 8.17998 28.4207 7.37285 28.4318C6.59054 28.442 6.02478 29.0172 6.01708 29.7987C6.01023 30.5048 6.01537 31.2109 6.01537 31.9171C6.01537 32.0249 6.01537 32.1328 6.01537 32.2338C5.95374 32.2338 5.89212 32.2338 5.83049 32.2338C4.776 32.2338 3.76688 32.2338 2.73294 32.2338C2.73294 32.0908 2.73294 31.9684 2.73294 31.8452C2.73294 30.7402 2.73978 29.636 2.7278 28.5311C2.72523 28.2854 2.79371 28.1125 2.97002 27.9362C6.8807 24.0358 10.7854 20.1294 14.6909 16.2239C15.3534 15.5614 15.4193 15.029 14.9699 14.2022C14.6062 13.5337 14.2476 12.8618 13.9103 12.1797C13.2667 10.8787 13.461 9.76 14.4923 8.73033C15.5323 7.69296 16.5756 6.65816 17.6173 5.6225C18.296 4.94804 18.9722 4.27187 19.6527 3.59912C20.3571 2.90326 21.2027 2.60284 22.175 2.81082C22.6244 2.90669 23.0558 3.10611 23.4829 3.28928C25.5585 4.17943 27.403 5.40681 28.9179 7.09639C30.2617 8.5951 31.2349 10.3215 31.9941 12.178C32.4708 13.3463 32.2902 14.3965 31.4104 15.2858Z" fill="white"/>
<path d="M24.8706 7.38416C23.6766 7.38673 22.6992 8.35905 22.6915 9.55134C22.6837 10.7684 23.6509 11.7493 24.8646 11.7536C26.0826 11.7579 27.06 10.7881 27.0609 9.57445C27.0618 8.36504 26.0792 7.38159 24.8706 7.38416Z" fill="white"/>
</svg>
