<svg width="42" height="35" viewBox="0 0 42 35" fill="none" xmlns="http://www.w3.org/2000/svg">
<path d="M39.7541 32.1023C37.298 32.1154 31.1529 32.1121 27.0921 32.1121H23.8629C23.7977 32.1121 23.7292 32.1121 23.677 32.1154C16.5893 32.1121 9.50152 32.1121 2.41703 32.1121C2.27677 32.1121 2.1039 32.1121 1.92776 32.135C1.28846 32.2135 0.776372 32.7237 0.685043 33.3746C0.596976 34.0059 0.994908 34.6633 1.59181 34.8726C1.82013 34.9511 2.0778 34.9903 2.40072 34.9903C5.73095 34.9936 9.06445 34.9936 12.3947 34.9936H26.2701H26.3419C26.4038 34.9936 26.4626 34.9936 26.518 34.9936H27.7444C31.8314 34.9936 37.4253 34.9903 39.777 35.0002C39.7802 35.0002 39.7868 35.0002 39.79 35.0002C40.5924 35.0002 41.1502 34.6665 41.4502 34.0059L41.4926 33.9077V33.1358L41.4405 33.0312C40.974 32.0958 40.064 32.1023 39.7541 32.1023Z" fill="white"/>
<path d="M36.5021 10.5678C36.4988 7.22183 33.7883 4.50059 30.4581 4.49731C30.4581 4.49731 30.4581 4.49731 30.4548 4.49731C28.8403 4.49731 27.3268 5.12529 26.1885 6.27005C25.0403 7.42461 24.4108 8.96185 24.4141 10.6038C24.4206 13.9399 27.1344 16.6513 30.4613 16.6513C30.4646 16.6513 30.4679 16.6513 30.4711 16.6513C33.8014 16.6448 36.5053 13.917 36.5021 10.5678ZM33.6024 10.6005C33.6122 11.4018 33.299 12.1639 32.7185 12.7526C32.1216 13.3577 31.2963 13.7044 30.4515 13.7044C30.4483 13.7044 30.445 13.7044 30.4385 13.7044C29.5807 13.7011 28.7783 13.3741 28.1814 12.7821C27.5877 12.1933 27.2616 11.4018 27.2681 10.5612C27.2746 8.81467 28.7065 7.39845 30.4646 7.39845C30.4679 7.39845 30.4711 7.39845 30.4776 7.39845C32.2357 7.40172 33.5763 8.77869 33.6024 10.6005Z" fill="white"/>
<path d="M5.21295 27.0752C5.31732 27.0752 5.41844 27.0752 5.52281 27.0719C5.62719 27.0719 5.73483 27.0686 5.8392 27.0686H6.17516C6.43284 27.0719 6.69052 27.0719 6.94819 27.0654C7.7832 27.0392 8.40619 26.4472 8.42902 25.6524C8.45185 24.8413 7.868 24.2264 7.03952 24.1904C6.26649 24.1544 5.4902 24.1544 4.73021 24.1937C3.91151 24.2329 3.32114 24.8707 3.35702 25.6786C3.3929 26.4505 4.00284 27.0359 4.80523 27.0654C4.94222 27.0719 5.07922 27.0752 5.21295 27.0752Z" fill="white"/>
<path d="M19.7406 28.1545C19.8515 28.1545 19.9592 28.1545 20.0701 28.1512L20.3734 28.148C20.4941 28.1512 20.5919 28.148 20.6996 28.1512C20.9475 28.1545 21.1986 28.1578 21.4465 28.1447C22.2946 28.1055 22.8915 27.52 22.898 26.7187C22.9045 25.8912 22.2815 25.2763 21.4172 25.2566C20.7811 25.2403 20.1092 25.2403 19.3688 25.2566C18.5044 25.273 17.8684 25.8748 17.8586 26.686C17.8456 27.5069 18.4555 28.1087 19.3362 28.148C19.4732 28.1512 19.6069 28.1545 19.7406 28.1545Z" fill="white"/>
<path d="M28.3841 31.7685C28.632 31.7783 28.8831 31.7783 29.131 31.775C29.2387 31.775 29.3398 31.775 29.4572 31.7717L29.7801 31.775C29.891 31.775 30.0019 31.7783 30.1128 31.7783C30.2498 31.7783 30.3901 31.7783 30.5271 31.7717C31.349 31.7423 31.9459 31.1699 31.972 30.385C32.0014 29.564 31.4306 28.9393 30.6151 28.9C29.8649 28.8641 29.0886 28.8608 28.3091 28.9C27.9144 28.9197 27.5524 29.0865 27.2947 29.371C27.0403 29.6523 26.9131 30.0121 26.9326 30.3882C26.9718 31.1536 27.5817 31.7358 28.3841 31.7685Z" fill="white"/>
<path d="M13.2132 31.5135C13.5851 31.5135 13.9602 31.5069 14.3287 31.4906C15.154 31.4579 15.7182 30.8561 15.7019 30.0286C15.6856 29.2436 15.0855 28.6549 14.2733 28.6254C14.0221 28.6156 13.771 28.6189 13.5198 28.6222L13.2034 28.6254C13.0925 28.6254 12.9816 28.6254 12.874 28.6222C12.6131 28.6189 12.3521 28.6156 12.0912 28.6287C11.2888 28.6647 10.6789 29.2763 10.6691 30.0515C10.6593 30.8397 11.2464 31.4579 12.0325 31.4906C12.4239 31.5037 12.8186 31.5135 13.2132 31.5135Z" fill="white"/>
<path d="M33.7823 19.2285C34.0661 19.6766 34.5357 19.9219 35.0152 19.9219C35.2631 19.9219 35.5143 19.8565 35.7426 19.7159C36.4112 19.307 36.633 18.4664 36.2579 17.7665C35.9937 17.2759 35.7002 16.7918 35.436 16.3634C35.1685 15.9251 34.7314 15.6798 34.2128 15.6765C34.2096 15.6765 34.2096 15.6765 34.2063 15.6765C33.7007 15.6765 33.2441 15.9316 32.9832 16.3601C32.719 16.7886 32.7026 17.3184 32.9375 17.7763C33.2082 18.3094 33.5181 18.8099 33.7823 19.2285Z" fill="white"/>
<path d="M33.4589 5.26927C33.6905 5.40991 33.9416 5.47533 34.1928 5.47533C34.6918 5.47533 35.1811 5.2104 35.4746 4.72633C35.7388 4.28805 35.9998 3.83669 36.2444 3.38533C36.3325 3.22507 36.3749 3.05826 36.3977 2.96014L36.4336 2.84239V2.76717C36.4369 2.0705 36.0715 1.51121 35.4779 1.30842C34.8419 1.08928 34.1504 1.31823 33.8046 1.86772C33.5111 2.33216 33.2403 2.8195 32.9892 3.2774C32.5782 4.01985 32.7772 4.85716 33.4589 5.26927Z" fill="white"/>
<path d="M35.7552 7.58152C36.0227 8.00999 36.4728 8.24875 36.9359 8.24875C37.1577 8.24875 37.3828 8.19315 37.5916 8.08194L37.6861 8.03288C38.1656 7.77449 38.6647 7.50957 39.1246 7.17922C39.3627 7.00915 39.5062 6.77365 39.6367 6.5676C39.6791 6.49564 39.7247 6.42696 39.7704 6.36154L39.8813 6.20782L39.8585 6.01811C39.7965 5.47845 39.4866 5.00419 39.0365 4.74907C38.6451 4.52994 38.195 4.51031 37.8003 4.69347C37.2915 4.92896 36.7565 5.23641 36.114 5.65833C35.491 6.06063 35.3344 6.90775 35.7552 7.58152Z" fill="white"/>
<path d="M21.7919 7.20861C22.2747 7.50952 22.7835 7.80389 23.2989 8.0819C23.5044 8.1931 23.7294 8.24543 23.9512 8.24543C24.4046 8.24543 24.8547 8.02302 25.132 7.61418C25.3505 7.29692 25.4353 6.8979 25.3635 6.52176C25.2983 6.18161 25.1124 5.89051 24.8351 5.70081C24.4013 5.40644 23.9447 5.1546 23.5011 4.91256C23.3641 4.83734 23.2271 4.76211 23.0901 4.68688C22.9466 4.60839 22.8031 4.58549 22.7215 4.57568L22.6563 4.55933L22.5911 4.5626C21.942 4.57895 21.332 5.03031 21.1689 5.60923C20.9993 6.2274 21.2472 6.86846 21.7919 7.20861Z" fill="white"/>
<path d="M22.6494 16.5761C22.7276 16.5761 22.8418 16.563 22.956 16.4976C23.1321 16.3962 23.3115 16.2981 23.4909 16.1999C23.9736 15.935 24.4727 15.6635 24.9358 15.3299C25.1772 15.1566 25.337 14.8949 25.386 14.5875C25.4447 14.2212 25.3403 13.8156 25.1087 13.5016C24.6977 12.9423 23.954 12.7461 23.38 13.0404C22.8124 13.3315 22.2416 13.6619 21.6871 14.0249C21.1914 14.3487 20.9859 15.0192 21.2011 15.6178C21.4001 16.177 21.9383 16.5565 22.5776 16.5695C22.5939 16.5761 22.62 16.5761 22.6494 16.5761Z" fill="white"/>
<path d="M25.4381 19.8434C25.5914 19.8925 25.748 19.9154 25.898 19.9154C26.3808 19.9154 26.8276 19.6766 27.0951 19.2547C27.3756 18.8066 27.6529 18.3323 27.9171 17.845C28.315 17.1124 28.103 16.2783 27.4115 15.8629C26.7233 15.4508 25.8948 15.6831 25.4414 16.419C25.1772 16.8474 24.9195 17.289 24.6847 17.724C24.5933 17.8875 24.5477 18.0543 24.5183 18.1655L24.4759 18.2931V18.3716C24.4629 19.0912 24.8347 19.6537 25.4381 19.8434Z" fill="white"/>
<path d="M21.3615 12.02C21.5474 12.0266 21.7333 12.0266 21.9192 12.0233L22.3106 12.02C22.3367 12.02 22.3661 12.02 22.3922 12.02C22.4737 12.02 22.5585 12.0233 22.6433 12.0233C22.751 12.0233 22.8586 12.02 22.9662 12.0135C23.7686 11.9612 24.3688 11.3364 24.3655 10.5613C24.359 9.79594 23.7654 9.18758 22.9858 9.14506C22.4346 9.11563 21.867 9.11563 21.3027 9.14179C20.4906 9.18104 19.8839 9.79921 19.8937 10.5842C19.9067 11.3724 20.5362 11.9873 21.3615 12.02Z" fill="white"/>
<path d="M38.3553 16.5664C38.4923 16.5664 38.6293 16.5468 38.763 16.5075C39.1218 16.4028 39.4219 16.1543 39.6078 15.8141C39.9862 15.1142 39.7318 14.3129 38.9881 13.8648C38.5315 13.59 38.114 13.3513 37.716 13.1321C37.5562 13.0471 37.3996 12.998 37.292 12.9653L37.1615 12.9195H37.08C36.3428 12.913 35.8112 13.263 35.5992 13.9204C35.3937 14.5549 35.6383 15.2025 36.2156 15.5688C36.5973 15.8076 37.0213 16.0561 37.5562 16.3505C37.8139 16.4944 38.0846 16.5664 38.3553 16.5664Z" fill="white"/>
<path d="M29.0329 3.08429C29.0655 3.866 29.6755 4.458 30.4517 4.46127H30.455C31.2313 4.46127 31.8543 3.85619 31.8739 3.08102C31.8869 2.525 31.8869 1.95262 31.8739 1.37698C31.8608 0.595272 31.2509 0 30.4615 0H30.4583C29.6787 0 29.0655 0.58546 29.0329 1.36389C29.0231 1.56014 29.0264 1.75638 29.0296 1.95262L29.0329 2.20447L29.0296 2.46613C29.0264 2.67218 29.0231 2.87824 29.0329 3.08429Z" fill="white"/>
<path d="M37.9215 9.14815C37.0963 9.1874 36.5255 9.78267 36.5353 10.5938C36.5451 11.3755 37.1387 11.9741 37.9444 12.0198C38.1335 12.0297 38.3227 12.0264 38.5086 12.0264C38.5869 12.0264 38.6652 12.0264 38.7467 12.0231L38.9783 12.0264C39.0631 12.0264 39.1479 12.0297 39.2327 12.0297C39.3371 12.0297 39.4448 12.0264 39.5491 12.0231C40.3515 11.9839 40.9549 11.3951 40.981 10.6232C41.0071 9.82846 40.4135 9.19394 39.6013 9.15142C39.0468 9.11871 38.4793 9.11871 37.9215 9.14815Z" fill="white"/>
<path d="M25.3989 4.65751L25.4837 4.79815C25.7414 5.22989 26.1654 5.46865 26.6807 5.46865C26.684 5.46865 26.684 5.46865 26.6873 5.46865C27.1961 5.46865 27.656 5.21353 27.9169 4.79161C28.1779 4.36314 28.1942 3.83329 27.9561 3.37211C27.7278 2.92075 27.4603 2.45631 27.1146 1.9101C26.6873 1.22979 25.8229 1.02373 25.1477 1.43584C24.4954 1.83487 24.2834 2.66237 24.6585 3.35576C24.89 3.80058 25.1477 4.23558 25.3989 4.65751Z" fill="white"/>
<path d="M31.8802 18.0708C31.8509 17.2891 31.2442 16.7004 30.4679 16.6938C30.4646 16.6938 30.4614 16.6938 30.4581 16.6938C29.6786 16.6938 29.0556 17.2924 29.0327 18.0577C29.0164 18.6301 29.0164 19.2058 29.0327 19.7651C29.0556 20.5402 29.6655 21.1224 30.4581 21.1224C30.4614 21.1224 30.4679 21.1224 30.4712 21.1224C31.2572 21.1159 31.8509 20.5369 31.877 19.7454C31.8835 19.5492 31.8835 19.3529 31.8802 19.1567V18.9081V18.6596C31.8868 18.4633 31.8868 18.2671 31.8802 18.0708Z" fill="white"/>
<path d="M41.4343 27.2124C40.9385 26.326 40.2014 26.2573 39.6763 26.3522C38.4205 26.5844 37.1386 26.4699 35.9383 26.3162C33.554 26.0088 31.0196 25.3383 28.1949 24.272C27.6339 24.0594 27.0762 23.8436 26.5184 23.6244C25.2887 23.1436 24.0199 22.6465 22.738 22.2311C20.2298 21.4167 17.5454 20.8901 14.5413 20.6219C13.2497 20.5074 11.9352 20.4289 10.6631 20.3537L9.38123 20.2785C9.23119 20.2686 7.75688 20.2196 7.2611 20.2327L6.82403 20.2425C6.24018 20.2556 5.48998 20.2686 4.95505 20.2915V20.3014C4.84089 20.2948 4.71695 20.3046 4.593 20.3112C4.37446 20.3243 4.07764 20.3471 3.74169 20.37C3.25242 20.406 2.3424 20.4747 1.73898 20.5368C1.36062 20.5761 1.02466 20.756 0.799598 21.0405C0.561491 21.3414 0.453853 21.7274 0.50278 22.1362C0.590846 22.895 1.30517 23.4543 2.09451 23.3758L2.21845 23.3628C2.43047 23.3431 2.63922 23.3202 2.85123 23.3104C3.33071 23.2843 3.80692 23.2581 4.2864 23.2319C4.74304 23.2058 5.19642 23.1829 5.64654 23.1567C5.73135 23.1534 7.31655 23.1076 7.31655 23.1076C7.66229 23.0978 8.43533 23.1273 8.72562 23.1403L8.85609 23.1436C9.02896 23.1469 9.19857 23.1534 9.37144 23.16L10.4446 23.1992V23.1959C12.5484 23.281 14.5902 23.4772 16.5244 23.7716C19.6263 24.2459 22.1118 24.9 24.3428 25.8256C27.5719 27.1633 31.0848 28.4814 34.8913 29.0669C36.1112 29.2533 37.1843 29.3449 38.1726 29.3449C38.7108 29.3449 39.2261 29.3187 39.7219 29.2631C40.159 29.2141 41.0658 29.116 41.4506 28.1871L41.4898 28.0955V27.3203L41.4343 27.2124Z" fill="white"/>
</svg>
