<svg width="36" height="32" viewBox="0 0 36 32" fill="none" xmlns="http://www.w3.org/2000/svg">
<path d="M0 30.4545C0 23.2145 0 15.9745 0 8.7345C0.202833 8.48284 0.379372 8.203 0.612254 7.98233C2.03114 6.63574 3.4613 5.30137 4.88864 3.96324C6.17043 2.7622 7.45035 1.55741 8.73871 0.362016C9.25236 -0.114078 9.78104 -0.109382 10.3032 0.352625C10.4957 0.523531 10.6816 0.702888 10.8694 0.878488C11.8253 1.77433 12.7813 2.67018 13.7513 3.58011C13.8527 3.48996 13.941 3.41577 14.0255 3.33783C15.0519 2.3772 16.0782 1.41656 17.1027 0.454981C17.7366 -0.140371 18.2474 -0.144127 18.8775 0.44653C19.9199 1.42407 20.9631 2.40067 22.0073 3.37727C22.0806 3.44582 22.1614 3.50592 22.2459 3.57541C23.3521 2.53777 24.4348 1.51891 25.5222 0.50475C26.2387 -0.163847 26.6866 -0.169481 27.3974 0.49536C30.1094 3.03171 32.8157 5.57463 35.5295 8.1091C35.8507 8.40959 35.9934 8.74765 35.9934 9.19275C35.985 16.1041 35.9784 23.0164 36 29.9277C36.0028 30.7653 35.4985 31.2377 34.6957 31.2367C23.5784 31.2198 12.4611 31.2217 1.34377 31.2339C0.707097 31.2358 0.262931 31.0348 0 30.4545ZM10.5943 29.0948C12.0404 29.0948 13.4273 29.0948 14.8049 29.0948C14.8049 27.6834 14.8049 26.2974 14.8049 24.8982C14.6368 24.8982 14.496 24.9066 14.356 24.8963C13.8199 24.8588 13.3738 24.3733 13.3785 23.838C13.3841 23.2981 13.8321 22.8004 14.3701 22.7985C16.7825 22.7882 19.1949 22.7891 21.6073 22.7976C22.1482 22.7994 22.5952 23.284 22.6083 23.8277C22.6205 24.3601 22.1764 24.8541 21.6411 24.8944C21.4928 24.9057 21.3425 24.8963 21.1744 24.8963C21.1744 26.3143 21.1744 27.7003 21.1744 29.1013C22.5811 29.1013 23.9681 29.1013 25.3757 29.1013C25.3823 28.983 25.3935 28.8807 25.3935 28.7793C25.3945 22.4435 25.3963 16.1078 25.3851 9.77214C25.3851 9.60123 25.2902 9.38432 25.1653 9.26694C23.014 7.2311 20.8505 5.20652 18.6897 3.18008C18.4615 2.96597 18.2324 2.75375 17.9986 2.53589C17.931 2.59318 17.8859 2.62886 17.8436 2.6683C15.5205 4.84687 13.1992 7.02826 10.8694 9.2012C10.6628 9.39371 10.5877 9.58903 10.5877 9.86886C10.5952 16.1341 10.5933 22.4004 10.5933 28.6656C10.5943 28.8037 10.5943 28.9417 10.5943 29.0948ZM8.43822 18.5738C7.38743 18.5738 6.37045 18.5766 5.35347 18.5728C4.72807 18.57 4.25949 18.1662 4.24916 17.5418C4.22474 16.1247 4.22474 14.7077 4.24822 13.2907C4.25855 12.6503 4.72713 12.2531 5.37788 12.2512C6.1864 12.2493 6.99397 12.2503 7.80249 12.2503C8.01001 12.2503 8.2166 12.2503 8.45512 12.2503C8.45512 12.0841 8.45512 11.9573 8.45512 11.8315C8.45512 10.9535 8.46075 10.0745 8.4523 9.19651C8.44855 8.773 8.57907 8.42274 8.90492 8.14009C9.20541 7.87903 9.48806 7.59826 9.77823 7.32594C10.5802 6.57377 11.3812 5.82066 12.2085 5.04407C11.306 4.19706 10.4215 3.36788 9.52844 2.53026C9.37914 2.66736 9.24955 2.78474 9.12184 2.90494C6.86626 5.01966 4.61257 7.13625 2.35136 9.2444C2.17294 9.41061 2.10157 9.57306 2.10157 9.81721C2.10815 16.1182 2.10721 22.4182 2.10721 28.7192C2.10721 28.844 2.10721 28.9689 2.10721 29.1023C4.23883 29.1023 6.32913 29.1023 8.42976 29.1023C8.42976 28.4008 8.42976 27.7191 8.42976 27.0101C7.38837 27.0101 6.37139 27.0129 5.35441 27.0092C4.72807 27.0063 4.25949 26.6044 4.24822 25.98C4.22286 24.563 4.2238 23.146 4.24634 21.7289C4.25667 21.0876 4.72431 20.6885 5.37413 20.6866C6.18264 20.6838 6.99022 20.6857 7.79873 20.6857C8.00626 20.6857 8.21379 20.6857 8.43728 20.6857C8.43822 19.9711 8.43822 19.2959 8.43822 18.5738ZM33.8693 29.1023C33.8749 29.0196 33.8806 28.9727 33.8806 28.9267C33.8815 22.5205 33.8825 16.1154 33.8721 9.71016C33.8721 9.56367 33.766 9.38244 33.6543 9.27633C32.1837 7.88279 30.7038 6.49958 29.2258 5.1145C28.3121 4.25809 27.3984 3.40263 26.4659 2.52932C25.5701 3.36976 24.6855 4.19987 23.7746 5.0544C23.8789 5.14643 23.9596 5.2131 24.0357 5.28446C24.9757 6.16528 25.8959 7.06864 26.8622 7.91941C27.3646 8.3617 27.5749 8.85282 27.5439 9.51766C27.5026 10.4144 27.5336 11.315 27.5336 12.2521C27.681 12.2521 27.7947 12.2521 27.9083 12.2521C28.8098 12.2521 29.7112 12.2503 30.6137 12.2531C31.2776 12.255 31.7358 12.6663 31.7443 13.3311C31.763 14.7124 31.7612 16.0947 31.7452 17.476C31.7377 18.1568 31.2813 18.5728 30.5968 18.5747C29.7065 18.5775 28.8163 18.5756 27.9271 18.5756C27.8031 18.5756 27.6792 18.5756 27.5514 18.5756C27.5514 19.2996 27.5514 19.9748 27.5514 20.6866C27.6829 20.6866 27.7965 20.6866 27.9102 20.6866C28.8116 20.6866 29.7131 20.6847 30.6155 20.6875C31.2644 20.6894 31.7302 21.0885 31.7405 21.7327C31.764 23.1375 31.763 24.5432 31.7414 25.948C31.7311 26.6073 31.2663 27.0082 30.5939 27.0092C29.7037 27.012 28.8135 27.0101 27.9242 27.0101C27.8003 27.0101 27.6763 27.0101 27.5524 27.0101C27.5524 27.736 27.5524 28.4111 27.5524 29.1032C29.6624 29.1023 31.7518 29.1023 33.8693 29.1023ZM19.0325 29.1051C19.0325 27.6881 19.0325 26.3105 19.0325 24.9207C18.3319 24.9207 17.6483 24.9207 16.9628 24.9207C16.9628 26.3274 16.9628 27.7134 16.9628 29.1051C17.6615 29.1051 18.3357 29.1051 19.0325 29.1051ZM8.42789 16.4506C8.42789 15.7416 8.42789 15.0599 8.42789 14.3856C7.73112 14.3856 7.06158 14.3856 6.39674 14.3856C6.39674 15.088 6.39674 15.7613 6.39674 16.4506C7.07755 16.4506 7.73863 16.4506 8.42789 16.4506ZM29.5957 14.3763C28.9084 14.3763 28.2388 14.3763 27.5571 14.3763C27.5571 15.0768 27.5571 15.7576 27.5571 16.4421C28.251 16.4421 28.9215 16.4421 29.5957 16.4421C29.5957 15.7435 29.5957 15.0702 29.5957 14.3763ZM8.42883 24.8851C8.42883 24.178 8.42883 23.4962 8.42883 22.8192C7.733 22.8192 7.06252 22.8192 6.3958 22.8192C6.3958 23.5206 6.3958 24.1939 6.3958 24.8851C7.07661 24.8851 7.73769 24.8851 8.42883 24.8851ZM27.5505 24.8832C28.2557 24.8832 28.9168 24.8832 29.5892 24.8832C29.5892 24.1826 29.5892 23.5009 29.5892 22.8163C28.8952 22.8163 28.2247 22.8163 27.5505 22.8163C27.5505 23.515 27.5505 24.1883 27.5505 24.8832Z" fill="white"/>
<path d="M21.1573 16.4674C21.3197 16.4674 21.4456 16.4637 21.5714 16.4684C22.1508 16.4862 22.6212 16.9708 22.61 17.5351C22.5987 18.092 22.1414 18.5634 21.577 18.5709C20.7347 18.5822 19.8914 18.5747 19.0491 18.5747C17.5626 18.5747 16.0761 18.5756 14.5896 18.5747C13.8816 18.5747 13.3933 18.153 13.3811 17.5361C13.3689 16.9248 13.86 16.4797 14.5605 16.4693C14.6403 16.4684 14.7192 16.4693 14.8347 16.4693C14.8347 16.1397 14.8347 15.8383 14.8347 15.5378C14.8347 14.7884 14.8281 14.04 14.8366 13.2907C14.8432 12.7094 15.2798 12.2587 15.8536 12.2559C17.2819 12.2474 18.7092 12.2474 20.1375 12.2559C20.7122 12.2596 21.1498 12.7085 21.1554 13.2907C21.1638 14.2156 21.1582 15.1396 21.1582 16.0646C21.1573 16.1876 21.1573 16.3134 21.1573 16.4674ZM19.021 16.4599C19.021 15.766 19.021 15.0758 19.021 14.38C18.3261 14.38 17.6434 14.38 16.9663 14.38C16.9663 15.0871 16.9663 15.7697 16.9663 16.4599C17.6593 16.4599 18.3251 16.4599 19.021 16.4599Z" fill="white"/>
</svg>
