<svg width="33" height="32" viewBox="0 0 33 32" fill="none" xmlns="http://www.w3.org/2000/svg">
<path d="M32.9827 29.2433C32.9851 29.027 32.9876 28.8044 32.986 28.5833C32.9802 27.8337 32.4387 27.2867 31.6701 27.2522C31.4175 27.241 31.1724 27.2434 30.9132 27.2466C30.8933 27.2466 30.8744 27.2466 30.8545 27.2474V16.8076C31.311 16.8172 31.7106 16.6138 32.073 16.1933C32.1613 16.0908 32.2579 15.9939 32.3602 15.8914C32.4279 15.8233 32.4956 15.7552 32.5608 15.6856C33.1725 15.0344 33.1436 14.2624 32.4841 13.6705C30.5747 11.9549 28.6637 10.2394 26.7535 8.52467L23.0809 5.22814C21.4323 3.74887 19.7838 2.2696 18.1378 0.788726C17.7539 0.443536 17.276 0.0134499 16.5619 0.000635429C16.0163 -0.0121791 15.549 0.168826 15.1313 0.543649C13.2731 2.21354 11.4141 3.88102 9.55428 5.54931L6.37613 8.40133C4.45767 10.1217 2.47484 11.9005 0.528317 13.6545C0.388808 13.7802 0.284796 13.9244 0.184085 14.0645C0.142811 14.1214 0.102361 14.1783 0.0594357 14.2327L0 14.308V15.1201L0.0685161 15.1986C0.173354 15.3187 0.277366 15.4397 0.381379 15.5606C0.621598 15.8409 0.870898 16.1301 1.13175 16.4048C1.39756 16.6843 1.74262 16.8196 2.14216 16.8044V27.2506C2.00265 27.2538 1.87057 27.2554 1.74262 27.2434C0.924555 27.1697 0.348359 27.4797 0.0255904 28.1645L0 28.2197V31.0557L0.0371473 31.1198C0.298829 31.5715 0.610041 31.8462 1.01701 31.984L1.06324 32H31.9318L31.983 31.98C32.6946 31.7069 33.0347 31.1791 32.9942 30.4126C32.9728 30.0266 32.9777 29.6285 32.9827 29.2433ZM26.978 25.7441V27.2186H23.2955V25.7441H26.978ZM26.7692 13.608H23.3021V10.4893C24.4421 11.512 25.6159 12.5652 26.7692 13.608ZM26.978 17.3466V21.9831H23.3013V17.3466H26.978ZM23.2963 15.7072V15.2603H26.9838V15.7072H23.2963ZM26.9838 23.6546V24.0646H23.2864V23.6546H26.9838ZM21.1054 8.51586C21.2664 8.65922 21.4125 8.79297 21.5479 8.93233C21.5619 8.94995 21.5892 9.02604 21.5892 9.12455C21.595 11.6874 21.5941 14.2936 21.5941 16.814V27.2434C21.4249 27.2442 21.2631 27.2442 21.1021 27.241C21.1021 27.2362 21.103 27.2306 21.103 27.2266C21.1046 27.1994 21.1054 27.1713 21.1054 27.1449V8.51586ZM11.3885 9.18702C11.3885 8.9964 11.4224 8.91231 11.5355 8.82421C11.6552 8.7313 11.7683 8.63359 11.8822 8.53188L11.883 13.3197C11.8838 17.8808 11.8838 22.5966 11.888 27.2354C11.888 27.2402 11.888 27.2458 11.888 27.2498C11.7881 27.2426 11.6898 27.2402 11.59 27.2402C11.5256 27.2402 11.4604 27.241 11.3943 27.2418V24.3794C11.3935 19.4002 11.3935 14.2519 11.3885 9.18702ZM9.70287 27.2402C8.61487 27.2458 7.54503 27.2458 6.41245 27.2458H6.003V25.7409H9.70865V25.8458C9.7103 26.3248 9.7103 26.7797 9.70287 27.2402ZM6.01126 15.7016V15.2443H9.68636V15.7016H6.01126ZM6.00548 21.9775V17.3426H9.69049V21.9775H6.00548ZM6.00383 24.0654V23.6546H9.69297V24.0654H6.00383ZM9.69544 10.4877V13.6056H6.22506C7.37993 12.5628 8.55461 11.5096 9.69544 10.4877ZM4.28102 15.334V27.2314H3.81957C3.81874 27.2146 3.81874 27.1978 3.81874 27.181V26.0717C3.81792 22.7431 3.81709 19.3017 3.827 15.9162C3.827 15.8417 3.88808 15.7168 3.9632 15.6367C4.06061 15.5342 4.16793 15.4341 4.28102 15.334ZM18.435 16.2134V6.12356C18.7784 6.4311 19.1069 6.72584 19.4313 7.02457C19.433 7.03579 19.4346 7.051 19.4346 7.06942C19.4371 9.95108 19.4371 12.8151 19.4355 16.2134H18.435ZM19.4272 17.8865V18.3133H13.572V17.8865H19.4272ZM13.5447 7.19196C13.5447 7.05581 13.5736 6.99094 13.6752 6.90524C13.9657 6.65856 14.2456 6.40628 14.5386 6.14118V16.2134H13.5505C13.5505 16.2021 13.5505 16.1917 13.5505 16.1813V14.0077C13.5505 11.7739 13.5505 9.46413 13.5447 7.19196ZM16.7311 13.4711C16.732 14.3368 16.732 15.2034 16.732 16.0692V16.215H16.2557V16.0916C16.2557 15.229 16.2565 14.3665 16.2565 13.5039C16.2581 10.7304 16.2598 7.86232 16.2433 5.04153C16.2416 4.71877 16.3118 4.52175 16.4934 4.37358C16.6758 4.52014 16.7468 4.70115 16.7452 4.98867C16.7278 7.81587 16.7295 10.6911 16.7311 13.4711ZM15.7273 2.86467C11.1929 6.93487 6.65762 11.0051 2.12235 15.0745L1.78224 14.7213C1.79793 14.7093 1.81361 14.6964 1.8293 14.6828C5.39461 11.4872 8.95745 8.2892 12.5211 5.09199L16.235 1.75942C16.4562 1.5616 16.533 1.5608 16.7534 1.75782C20.6399 5.24496 24.5263 8.73291 28.4119 12.2208L31.2004 14.7245L30.8653 15.0737L30.4798 14.7293C30.0802 14.3721 29.6865 14.0197 29.2935 13.6673C25.2824 10.0672 21.2722 6.46714 17.2619 2.86627C16.6668 2.33047 16.3225 2.33047 15.7273 2.86467ZM19.4165 19.98V27.2218H13.5604V19.98H19.4165ZM29.1647 24.3225C29.1672 25.2548 29.1705 26.187 29.1705 27.1193V27.2226H28.7008V15.2899C29.0657 15.6455 29.2093 16.1108 29.1961 16.8301C29.1499 19.3281 29.1573 21.8669 29.1647 24.3225ZM31.3242 28.8885V30.3686H1.67576V28.8885H31.3242Z" fill="white"/>
</svg>
