<svg width="37" height="31" viewBox="0 0 37 31" fill="none" xmlns="http://www.w3.org/2000/svg">
<path d="M36.9909 24.7185L36.9943 23.1273C36.9978 21.5752 37.0013 19.9695 36.9995 18.3902C36.9995 18.0804 36.8809 17.8047 36.6679 17.6124C36.4505 17.4167 36.1517 17.3248 35.8287 17.3529L35.8062 17.3546C34.8597 17.4363 33.8802 17.5197 32.9173 17.6286L32.8705 17.6337C32.6731 17.6558 32.4687 17.6797 32.3847 17.6729C32.3466 17.6209 32.2851 17.501 32.2227 17.3716C32.6809 17.1487 33.0021 16.8151 33.158 16.3999C33.3329 15.9336 33.281 15.4111 33.0082 14.8903C32.7519 14.4011 32.5172 13.9654 32.2938 13.5637C32.7112 13.3519 33.0169 13.0234 33.1658 12.6218C33.3364 12.1606 33.2853 11.6415 33.0229 11.1607C32.3474 9.92606 31.7135 8.79773 31.0866 7.71111C30.6544 6.96315 29.9513 6.58534 29.0558 6.62193C28.5579 6.6415 28.1639 6.8321 27.8573 7.061C27.6529 6.68915 27.4589 6.33772 27.2364 5.98799C26.8294 5.34809 26.1409 4.96348 25.3944 4.96007C25.3901 4.96007 25.3866 4.96007 25.3823 4.96007C24.635 4.96007 23.9422 5.33959 23.5265 5.97778C23.4105 6.15647 23.31 6.33942 23.2139 6.51641L23.1429 6.64575C22.7315 7.39031 22.321 8.13572 21.9106 8.88027L21.4299 9.75247C20.9909 10.3753 20.8376 10.9565 20.9744 11.4781C21.1017 11.9623 21.4715 12.3708 22.076 12.6941C21.8231 13.1562 21.5529 13.6582 21.2325 14.2615C20.9259 14.8393 20.8627 15.4068 21.0498 15.9038C21.2247 16.3675 21.6057 16.7377 22.1565 16.9794C22.0838 17.1112 22.0101 17.2423 21.9374 17.3742C21.675 17.8456 21.4031 18.334 21.145 18.8207C20.8644 19.35 21.0446 19.9559 21.5633 20.2316C22.0881 20.5098 22.6865 20.3218 22.9861 19.7857C23.2234 19.3602 23.4512 18.9246 23.6711 18.5034C23.7603 18.3332 23.8486 18.163 23.9387 17.9928C23.9552 17.9639 23.9725 17.9341 23.9889 17.9052C24.3284 17.2993 24.4107 16.7394 24.2323 16.2425C24.0669 15.7804 23.6928 15.4162 23.1203 15.1584L23.2104 14.9933C23.4867 14.4879 23.7716 13.9662 24.0409 13.4429C24.2981 12.9426 24.3336 12.4014 24.1413 11.9189C23.9629 11.4713 23.6053 11.1199 23.1281 10.9208C23.1541 10.8816 23.1801 10.8399 23.2052 10.7948C23.4382 10.3813 23.6702 9.96775 23.9023 9.55335C24.3362 8.77986 24.7856 7.97915 25.2308 7.19545C25.3044 7.06611 25.3693 7.02867 25.3754 7.02526C25.3918 7.02867 25.4542 7.06781 25.5252 7.19289C25.8828 7.82343 26.2431 8.46673 26.5921 9.0896C26.929 9.69205 27.2771 10.3132 27.6243 10.9259C27.1229 11.1522 26.7714 11.5054 26.6033 11.9513C26.4206 12.4371 26.476 12.9826 26.7627 13.5263C27.0381 14.0496 27.3308 14.5934 27.6321 15.1439C27.4243 15.2205 27.1948 15.3379 27.0147 15.5515C26.9697 15.5847 26.9064 15.6332 26.8493 15.7038C26.5315 16.0901 26.3903 16.6322 26.4596 17.1904C26.5271 17.7316 26.7878 18.2055 27.1732 18.4923C27.3013 18.5867 27.4382 18.6514 27.5793 18.6855C26.8943 18.8727 26.2258 19.082 25.5763 19.3134C25.3009 19.3636 25.0524 19.464 24.8315 19.5525C24.7562 19.5832 24.68 19.6138 24.6038 19.6419C24.0149 19.8597 23.7369 20.3933 23.9283 20.9395C23.9777 21.0816 24.0513 21.2042 24.1439 21.3054C23.5542 21.0357 22.9489 20.7736 22.3245 20.5558C21.1442 20.0427 19.9101 19.6555 18.7159 19.2819L18.3895 19.1798C18.2847 19.1467 18.2743 19.1254 18.2526 19.0828C18.0214 18.631 17.7651 18.1587 17.4897 17.6788C17.4429 17.598 17.4204 17.535 17.4118 17.4814C17.4473 17.461 17.4845 17.444 17.5261 17.4295C18.1773 17.2082 18.6605 16.7802 18.8874 16.2246C19.1143 15.6672 19.0649 15.0273 18.7471 14.4223C18.5401 14.0275 18.3236 13.631 18.1149 13.2472C17.9703 12.9809 17.8248 12.7145 17.6819 12.4473C17.6577 12.4014 17.6317 12.3563 17.6057 12.3112C17.5572 12.227 17.5131 12.1504 17.4888 12.0831C17.507 12.0738 17.533 12.0619 17.5728 12.0474C18.2206 11.8185 18.6943 11.3837 18.9082 10.8212C19.1238 10.2537 19.0545 9.60951 18.7116 9.00961C18.5696 8.76029 18.4258 8.51182 18.2821 8.26335C18.0682 7.89235 17.8465 7.50944 17.6343 7.13078C17.3849 6.68574 17.139 6.23816 16.893 5.79143C16.4722 5.02645 16.0366 4.23594 15.5897 3.465C15.1801 2.75789 14.4683 2.33583 13.6854 2.33583C13.6837 2.33583 13.6828 2.33583 13.6811 2.33583C12.88 2.33753 12.1517 2.77405 11.7326 3.505C11.6988 3.56371 11.6659 3.62157 11.6321 3.68029C11.4797 3.40884 11.3282 3.1374 11.1758 2.86595C10.8528 2.28818 10.5194 1.68998 10.1799 1.10625C9.73477 0.341268 9.0134 -0.0501565 8.14741 0.00515342C7.31173 0.0545069 6.6683 0.478266 6.3349 1.19559C5.5633 2.4907 4.82202 3.81133 4.13096 5.1192C3.9872 5.37022 3.83999 5.62039 3.69363 5.87056C3.36283 6.43557 3.02076 7.02016 2.709 7.61325C2.36434 8.26931 2.30199 8.91771 2.52715 9.48868C2.75837 10.0741 3.27016 10.5243 4.00799 10.7914C4.10238 10.8255 4.13788 10.857 4.14741 10.8672C4.14741 10.8816 4.14221 10.9284 4.09545 11.0178C3.78543 11.6083 3.46415 12.2082 3.15412 12.7869C3.02682 13.0251 2.89952 13.2625 2.77222 13.5008C2.36261 14.1781 2.27255 14.892 2.51849 15.5132C2.68302 15.9285 2.98699 16.2739 3.40006 16.525C3.33078 16.5199 3.2615 16.5156 3.19223 16.5105C2.61894 16.4705 2.02574 16.4288 1.4438 16.382C1.07748 16.3522 0.661808 16.3599 0.357847 16.6347C0.0547508 16.9087 0.0157813 17.3206 0.0157813 17.6482C0.0157813 18.6931 0.0175133 19.7389 0.0192453 20.7838C0.0253072 23.3545 0.0296371 26.0102 0.000193525 28.6217C-0.00760037 29.2905 0.220155 29.8725 0.659211 30.3065C1.10519 30.7473 1.74603 31 2.4189 31C2.42323 31 2.42756 31 2.43189 31C6.74971 30.9796 11.1394 30.9813 15.3853 30.983C16.9129 30.9838 18.4414 30.9847 19.9699 30.9838C20.0703 30.9838 20.1665 30.9796 20.2591 30.9745C20.2955 30.9728 20.3319 30.9711 20.3682 30.9694C20.8679 30.9711 21.3676 30.9728 21.8673 30.9745C23.0112 30.9787 24.1942 30.983 25.3581 30.9838C26.3444 30.9821 27.3438 30.9796 28.3111 30.9753C28.7449 30.9736 29.1797 30.9711 29.6109 30.9694C30.0716 30.9702 30.5332 30.9719 30.9939 30.9736C32.2834 30.9787 33.617 30.983 34.929 30.9762C35.4252 30.9736 35.8616 30.8026 36.1942 30.4818C36.7016 30.1201 36.9839 29.5875 36.9909 28.9774C37.0021 27.9528 36.9978 26.9139 36.9935 25.9081C36.9935 25.5116 36.9917 25.1142 36.9909 24.7185ZM30.2362 18.0821C29.6508 18.1877 29.074 18.3076 28.5051 18.4438C28.8445 18.1553 28.9545 17.7375 28.7917 17.335C28.7389 17.204 28.68 17.0806 28.6159 16.9666C29.0792 16.7845 29.4464 16.456 29.6473 16.0348C29.8872 15.5328 29.869 14.9388 29.5979 14.4062C29.3355 13.8888 29.0368 13.3331 28.6869 12.7103C29.1953 12.478 29.5512 12.1163 29.7192 11.6602C29.8924 11.188 29.8439 10.6527 29.5832 10.1524L29.5209 10.0333C29.3788 9.75928 29.2325 9.47592 29.0368 9.21128C28.919 9.05216 28.9173 9.00025 29.0238 8.83943C29.1052 8.7169 29.1745 8.67775 29.197 8.67095C29.2126 8.67946 29.2515 8.71179 29.2966 8.79008C29.7027 9.49634 30.1071 10.2213 30.4986 10.9225C30.6761 11.2407 30.8545 11.559 31.0329 11.8764C30.5921 12.1129 30.2881 12.4422 30.1496 12.8388C29.9876 13.3008 30.0586 13.8292 30.3531 14.367C30.4397 14.5261 30.5254 14.6853 30.6111 14.8452C30.7506 15.1065 30.8943 15.3745 31.045 15.6391C30.5505 15.8417 30.2188 16.2416 30.0595 16.8287C29.9218 17.3308 30.0621 17.7588 30.2362 18.0821ZM25.3035 21.5684C25.5953 21.4748 25.882 21.3676 26.16 21.2646C26.2734 21.222 26.3869 21.1804 26.5012 21.1387C27.8885 20.7132 29.4247 20.3277 31.1948 19.9601C31.5681 19.9108 31.9456 19.8563 32.3111 19.8036C33.1641 19.6802 34.0448 19.5534 34.9125 19.487C34.9168 20.5796 34.9212 21.6722 34.9255 22.7639L34.9307 23.9348C34.929 23.9739 34.9264 24.0122 34.9246 24.0514C34.9186 24.1518 34.9125 24.2556 34.9125 24.3637L34.9116 25.0478C34.9099 26.2331 34.909 27.4593 34.9151 28.6651C34.916 28.7902 34.9012 28.8599 34.8787 28.9042C34.7835 28.922 34.677 28.9306 34.5471 28.9306C33.0515 28.9306 31.5568 28.934 30.0612 28.9374L28.7623 28.9399C28.4133 28.9391 28.0651 28.9374 27.7161 28.9357C26.9549 28.9323 26.1678 28.9297 25.3927 28.9289C24.0114 28.9297 22.6293 28.9331 21.2481 28.9365L19.5845 28.9408C19.5429 28.9399 19.5022 28.9382 19.4607 28.9365C19.3576 28.9331 19.2546 28.9297 19.1524 28.9297L2.43362 28.928C2.2483 28.928 2.16776 28.911 2.13659 28.9008C2.12706 28.8701 2.10887 28.7919 2.10887 28.6115C2.10801 26.6169 2.10801 24.6223 2.10801 22.6278V20.4239C2.10801 19.7797 2.10801 19.1356 2.10801 18.4914C2.52628 18.5212 2.94369 18.5493 3.37928 18.5782C3.1853 18.9331 3.00171 19.2717 2.82505 19.6223C2.48558 20.2954 2.4977 21.068 2.85882 21.6892C3.21474 22.3019 3.84605 22.6831 4.58993 22.7358C5.43167 22.7954 6.28207 22.7818 7.10476 22.769L7.226 22.7673C7.21387 23.6744 7.21561 24.5934 7.21734 25.4835C7.2182 25.897 7.21907 26.3097 7.2182 26.7224C7.21734 27.5401 7.73607 27.7716 8.04609 27.8371C8.37084 27.906 8.67913 27.8405 8.91468 27.6542C9.16841 27.4534 9.3087 27.1351 9.30957 26.7582V26.639C9.31303 25.3729 9.31649 24.0658 9.3061 22.775C9.49056 22.7775 9.66809 22.7622 9.83609 22.7282C10.3505 22.6218 10.6666 22.2346 10.6605 21.7181C10.6544 21.2178 10.347 20.8468 9.83782 20.726C9.6906 20.6911 9.55291 20.6936 9.44293 20.6962C9.41955 20.697 9.39443 20.6962 9.37278 20.697C8.82028 20.697 8.26778 20.697 7.71528 20.697C6.78608 20.697 5.85687 20.697 4.92767 20.6953C4.77525 20.6953 4.70424 20.6681 4.67913 20.6545C4.67913 20.6264 4.68779 20.5532 4.7588 20.4222C5.21517 19.5747 5.67155 18.734 6.05778 18.0234C6.39465 17.404 6.44141 16.7045 6.18595 16.1038C5.93135 15.5064 5.39443 15.0503 4.71377 14.8537C4.57348 14.8129 4.51113 14.7806 4.48688 14.7644C4.48601 14.7414 4.48861 14.6921 4.50853 14.6027C4.65748 14.3304 4.80903 14.059 4.95971 13.7875C5.32862 13.1255 5.71052 12.4405 6.05258 11.7445C6.30805 11.2246 6.32624 10.6425 6.10368 10.1048C5.86726 9.53378 5.38231 9.08109 4.77265 8.86411C4.60725 8.80539 4.53104 8.76029 4.499 8.73732C4.50766 8.69818 4.53537 8.61223 4.62544 8.45141C4.89822 7.96383 5.16841 7.46689 5.43081 6.98612C5.54425 6.77764 5.65769 6.56917 5.76767 6.3675C5.92875 6.08499 6.08982 5.80334 6.2509 5.52083C6.6735 4.78308 7.11082 4.0198 7.53429 3.26419C7.57239 3.19611 7.61569 3.12634 7.66159 3.05316C7.77677 2.86936 7.90407 2.66599 7.9846 2.42262C8.06687 2.34094 8.1119 2.25329 8.13788 2.20223C8.14135 2.19458 8.14568 2.18692 8.14654 2.18522C8.2063 2.09502 8.25739 2.05928 8.27731 2.05077C8.29809 2.06098 8.35265 2.10268 8.41413 2.20989C8.82115 2.91786 9.23076 3.64029 9.62738 4.33805C9.79452 4.63247 9.96166 4.92774 10.1271 5.2179L10.6718 6.20072C11.1056 6.98357 11.5395 7.76727 11.9707 8.55182C12.0279 8.65648 12.0452 8.71775 12.0504 8.74583C12.0262 8.7637 11.9681 8.80029 11.8434 8.84198C11.2173 9.05131 10.7748 9.42827 10.5271 9.96265C10.1851 10.6153 10.218 11.296 10.6276 12.044C11.0424 12.7996 11.53 13.6939 12.0097 14.5951C12.0651 14.698 12.0634 14.7542 12.0599 14.7627C12.0565 14.7704 12.0218 14.8035 11.9266 14.8316C11.1662 15.0571 10.6068 15.5107 10.3513 16.108C10.0976 16.7011 10.1574 17.404 10.5194 18.0864C10.9679 18.9314 11.4148 19.7627 11.7932 20.4639C11.8486 20.5668 11.8573 20.6247 11.8582 20.6468C11.8417 20.6587 11.7941 20.686 11.6893 20.7072C11.6321 20.7183 11.5741 20.7328 11.5109 20.7506C10.9827 20.903 10.7029 21.3165 10.7653 21.8585C10.8242 22.3751 11.1931 22.7154 11.7283 22.7469C11.8417 22.7537 11.95 22.7529 12.0539 22.7529C12.1058 22.7529 12.1587 22.752 12.2115 22.7529C12.3189 22.7546 12.4211 22.7461 12.5198 22.7375C12.557 22.7341 12.6029 22.7307 12.6462 22.7282C12.6324 22.8516 12.6159 23.0005 12.6445 23.1588C12.6428 23.3255 12.641 23.4915 12.6393 23.6582C12.6341 24.0956 12.6289 24.5475 12.6341 24.9942C12.6376 25.3022 12.7562 25.5839 12.9684 25.7864C13.1675 25.9762 13.4334 26.0791 13.7071 26.0723C14.2751 26.0612 14.7107 25.6 14.7194 25.0001C14.7229 24.7508 14.7185 24.5007 14.7142 24.259C14.7125 24.156 14.7107 24.0531 14.7099 23.9501C14.7107 23.8182 14.7133 23.6863 14.7151 23.5544C14.7194 23.2932 14.7237 23.0243 14.7211 22.7546C15.3368 22.7707 15.9716 22.7869 16.6064 22.7563C17.5971 22.7086 18.276 22.2568 18.6276 21.4118C18.7887 21.4671 18.9489 21.5173 19.1065 21.5675C19.1792 21.5905 19.2528 21.6135 19.3256 21.6373C20.3968 21.9811 21.4637 22.4091 22.496 22.8226C22.7514 22.9247 23.0069 23.0277 23.2624 23.129C23.2814 23.1392 23.3005 23.1502 23.3195 23.1605C23.3862 23.197 23.4607 23.2396 23.5429 23.277C26.347 24.5713 28.4687 25.8723 30.2197 27.3717C30.5012 27.6125 30.7791 27.8763 31.0485 28.1307C31.1991 28.2728 31.349 28.4157 31.5014 28.5562C31.8253 28.8548 32.2366 28.9357 32.6289 28.7782C33.0073 28.6268 33.2446 28.3077 33.281 27.9035C33.3208 27.4568 33.0385 27.1691 32.8696 26.9981C31.5447 25.6511 29.9287 24.419 27.9292 23.2311C27.0389 22.7027 26.0431 22.1844 24.887 21.6458L24.8532 21.6296C24.9961 21.6373 25.1494 21.6177 25.3035 21.5684ZM16.8012 10.1328C16.2522 10.326 15.8815 10.6281 15.6694 11.0544C15.2883 11.656 15.2728 12.3333 15.6235 13.0141C15.8712 13.4948 16.1336 13.9756 16.3873 14.441C16.5319 14.7065 16.6765 14.972 16.8194 15.2384C16.874 15.3396 16.9 15.4051 16.9121 15.4443C16.8774 15.463 16.8185 15.4911 16.719 15.526C16.2227 15.6996 15.8764 15.9693 15.659 16.3488C15.2121 16.9845 15.174 17.7111 15.5481 18.4531C15.7594 18.871 15.9872 19.2854 16.2072 19.6853C16.3388 19.9252 16.4713 20.1644 16.5995 20.406C16.6731 20.5439 16.6843 20.623 16.6852 20.6536C16.6566 20.6672 16.5795 20.6953 16.4176 20.6962C16.0954 20.697 15.7733 20.6962 15.4512 20.6962C14.9653 20.6953 14.4657 20.6945 13.9686 20.6987C13.9972 20.2026 13.8101 19.7857 13.6542 19.4989C13.2437 18.7442 12.8064 17.9392 12.3726 17.1283C12.3059 17.004 12.2929 16.9368 12.2903 16.9104C12.3111 16.8943 12.3674 16.8568 12.5007 16.816C13.2152 16.5973 13.7469 16.1497 14.0006 15.5541C14.2518 14.9627 14.2024 14.2828 13.8629 13.6386C13.6257 13.1893 13.3797 12.7358 13.1407 12.2976C12.9424 11.9325 12.7441 11.5675 12.5484 11.1999C12.4981 11.1046 12.4548 10.9948 12.4089 10.8774C12.4081 10.8757 12.4072 10.8731 12.4063 10.8714C12.4418 10.8323 12.5085 10.7923 12.6428 10.7489C13.2654 10.5455 13.7581 10.0979 13.9954 9.52102C14.2318 8.94494 14.1929 8.28718 13.888 7.71706C13.8499 7.64559 13.8144 7.57241 13.7789 7.49923C13.6655 7.26522 13.5382 7.00399 13.3269 6.77339C13.2334 6.50535 13.0948 6.2722 12.9701 6.06287C12.9181 5.97522 12.8688 5.89183 12.8237 5.80929C12.9458 5.59401 13.0636 5.37617 13.1771 5.1643C13.2966 4.94135 13.4204 4.71075 13.5468 4.49037C13.5616 4.46484 13.6014 4.40442 13.6473 4.40442C13.6906 4.40442 13.759 4.44867 13.8162 4.54823C14.3141 5.42383 14.8147 6.31815 15.2979 7.18268C15.5005 7.54432 15.7023 7.90682 15.9058 8.26846L16.8653 9.97711C16.8913 10.0231 16.9077 10.0579 16.919 10.0852C16.8913 10.0979 16.8532 10.1141 16.8012 10.1328Z" fill="white"/>
</svg>
