<svg width="40" height="31" viewBox="0 0 40 31" fill="none" xmlns="http://www.w3.org/2000/svg">
<path d="M0.083991 9.70364C0.0839791 8.02606 1.13607 6.54096 2.7059 5.94944C2.74592 5.93435 2.78593 5.91924 2.82593 5.90409C7.88368 3.98798 12.9384 2.06781 17.9951 0.14967C18.0177 0.141049 18.0405 0.132713 18.0634 0.12454C18.2367 0.0628294 18.4284 0.19152 18.4284 0.375453C18.4294 5.10368 18.4273 9.8319 18.4334 14.5601C18.4334 14.7991 18.3979 14.9415 18.1375 15.0392C12.1542 17.298 6.17505 19.5691 0.195859 21.836C0.141177 21.8564 0.0849901 21.8051 0.0849784 21.7468C0.0841715 17.7329 0.0840196 13.7183 0.083991 9.70364ZM4.10333 12.2525C4.10333 13.18 4.09825 14.1075 4.10435 15.0361C4.11147 15.9881 4.8417 16.5128 5.7245 16.1833C8.71358 15.0676 11.7006 13.9438 14.6856 12.8169C15.3315 12.5738 15.5522 12.2413 15.5532 11.5436C15.5562 9.72613 15.5573 7.90868 15.5532 6.09123C15.5501 5.07113 14.8229 4.57075 13.8629 4.93078C10.8982 6.04241 7.93453 7.15912 4.97189 8.27481C4.34437 8.51077 4.10842 8.84436 4.10537 9.50747C4.09926 10.4228 4.10333 11.3381 4.10333 12.2525Z" fill="black"/>
<path d="M1.62551 23.9798C1.5189 23.9412 1.52509 23.7874 1.63107 23.747C2.71465 23.3344 3.73445 22.9449 4.75596 22.558C9.56454 20.7344 14.3721 18.9099 19.1847 17.0985C19.3993 17.0182 19.6922 16.9948 19.9007 17.0731C25.7569 19.277 31.6069 21.4972 37.4569 23.7154C37.5861 23.7636 37.5771 23.9531 37.4487 24.0035C37.2602 24.0775 37.0866 24.1455 36.9118 24.2107C31.375 26.2915 25.8382 28.3694 20.3035 30.4553C19.8448 30.6282 19.4217 30.6709 18.9447 30.4909C13.175 28.3124 7.39926 26.1481 1.62551 23.9798Z" fill="black"/>
<path d="M25.2988 16.1781C25.2988 16.4047 25.0727 16.5619 24.8602 16.4832C24.6269 16.3967 24.4068 16.3151 24.1872 16.232C23.1213 15.8282 22.0575 15.4184 20.9876 15.0227C20.7943 14.9515 20.7109 14.8681 20.7109 14.6474C20.7181 9.82971 20.716 5.01198 20.717 0.193238C20.717 0.0946044 20.8282 0.0335717 20.9206 0.0680459C21.4772 0.275669 22.0209 0.476984 22.563 0.682435C27.9523 2.72669 33.3406 4.77298 38.7309 6.81214C38.9567 6.89758 39.0685 6.98301 39.0685 7.25863C39.0573 12.0255 39.0604 16.7924 39.0604 21.5603C39.0604 21.7105 38.9019 21.8098 38.7614 21.7566C37.9305 21.4421 37.1143 21.1335 36.2981 20.8249C35.4214 20.4924 34.5498 20.1486 33.667 19.8343C33.4077 19.7418 33.3284 19.6167 33.3294 19.3451C33.3385 15.8496 33.3355 12.353 33.3355 8.85742C33.3355 7.9553 33.1372 7.66748 32.2961 7.35118C30.5417 6.69112 28.7862 6.03207 27.0308 5.37506C26.0311 5.00079 25.3008 5.5022 25.2998 6.56805C25.2968 9.77174 25.2988 12.9754 25.2988 16.1781Z" fill="black"/>
<path d="M27.5956 8.21566C27.6005 8.12629 27.7056 8.07671 27.7894 8.10827C28.8303 8.5004 29.843 8.87755 30.8501 9.27034C30.9366 9.3039 31.0342 9.45035 31.0342 9.54392C31.0393 12.6032 31.0342 15.6635 31.0291 18.7227C31.0291 18.7745 30.9579 18.7963 30.9095 18.778C30.7572 18.7207 30.6038 18.6627 30.4504 18.6047C29.5869 18.2783 28.7194 17.9589 27.862 17.6152C27.7461 17.5684 27.6037 17.3965 27.6037 17.2816C27.5905 14.2599 27.5935 11.2373 27.5956 8.21566Z" fill="black"/>
<path d="M6.53669 13.4207C6.46613 13.4476 6.39532 13.3751 6.39526 13.2996C6.39454 12.311 6.38724 11.3321 6.40956 10.3533C6.41159 10.2536 6.60381 10.1173 6.73501 10.0675C8.72231 9.31182 10.7137 8.56735 12.705 7.82084C12.7604 7.8 12.8158 7.7795 12.8728 7.75857C13.0566 7.69109 13.2624 7.82128 13.2624 8.01713C13.2634 8.8806 13.2715 9.74508 13.2532 10.6086C13.2502 10.7347 13.1444 10.9299 13.0386 10.9706C10.8754 11.7985 8.70502 12.6091 6.53669 13.4207Z" fill="black"/>
</svg>
