<svg width="23" height="28" viewBox="0 0 23 28" fill="none" xmlns="http://www.w3.org/2000/svg">
<path d="M15.4339 22.303C15.4339 23.2823 15.4339 24.231 15.4339 25.1928C15.5601 25.2174 15.6776 25.2323 15.7907 25.263C16.4781 25.4532 16.8928 26.0959 16.8007 26.8228C16.7183 27.4724 16.1563 27.9906 15.4681 27.9985C14.1117 28.0134 12.7544 28.0055 11.3981 28.0055C9.48319 28.0055 7.56832 28.0125 5.65344 28.002C4.67847 27.9968 4.02702 27.17 4.26551 26.2599C4.39439 25.7662 4.73107 25.4567 5.23522 25.2735C5.0546 24.544 4.83103 23.8251 4.70652 23.0886C4.56449 22.2521 4.14714 21.6664 3.51499 21.093C1.16348 18.959 0.0271811 16.2436 0.0113992 13.0776C-0.00964337 9.23817 0.00438501 5.39878 0.00701534 1.55939C0.00701534 0.572138 0.568151 0.0118792 1.55189 0.0101257C2.8653 0.00749534 4.17783 0.00661856 5.49124 0.0101257C6.45481 0.012756 7.01419 0.576522 7.01419 1.5436C7.01595 4.61757 7.01507 7.69154 7.01507 10.7655C7.01507 10.8953 7.01507 11.025 7.01507 11.2021C7.17377 11.2021 7.31054 11.2021 7.4482 11.2021C11.8794 11.2021 16.3106 11.2021 20.7418 11.2021C21.8992 11.2021 22.4182 11.7308 22.4314 12.8856C22.4454 14.1805 22.4296 15.472 21.9737 16.7057C20.8821 19.6578 18.8077 21.5113 15.7337 22.2293C15.6381 22.2513 15.5443 22.2758 15.4339 22.303Z" fill="black"/>
</svg>
