<svg width="29" height="31" viewBox="0 0 29 31" fill="none" xmlns="http://www.w3.org/2000/svg">
<path d="M23.3925 30.0319C22.9659 29.861 22.6141 29.6075 22.4583 29.1514C22.2722 28.6075 22.3895 28.1233 22.7881 27.7164C23.2889 27.205 23.8018 26.705 24.379 26.1308C24.1883 26.1308 24.0832 26.1308 23.978 26.1308C19.1835 26.1308 14.3898 26.1437 9.59525 26.1255C7.14806 26.1164 5.39683 24.9628 4.35139 22.7501C3.99887 22.0035 3.89069 21.2016 3.89221 20.3778C3.8975 15.6037 3.89448 10.8296 3.89448 6.05479C3.89448 5.94434 3.89448 5.83314 3.89448 5.66823C3.79841 5.74388 3.74016 5.78094 3.6925 5.82936C3.25828 6.26281 2.82785 6.70081 2.39137 7.13351C1.80056 7.71827 0.930621 7.74172 0.391256 7.19252C-0.153403 6.63803 -0.12844 5.80893 0.460095 5.21737C1.71281 3.9586 2.96326 2.69756 4.23111 1.45468C4.43838 1.25195 4.73189 1.13848 4.98607 0.983398C5.15627 0.983398 5.32572 0.983398 5.49593 0.983398C5.88929 1.09763 6.18432 1.34953 6.46724 1.63548C7.66927 2.85113 8.8819 4.05543 10.0877 5.26654C10.4826 5.66369 10.6029 6.14102 10.4311 6.67358C10.2587 7.20992 9.86909 7.51478 9.31914 7.59648C8.86904 7.6638 8.48324 7.50494 8.16325 7.18798C7.72752 6.75603 7.29557 6.31955 6.86136 5.88534C6.79782 5.82179 6.72898 5.76279 6.62912 5.6705C6.62231 5.80666 6.61324 5.89668 6.61324 5.98595C6.61248 10.7873 6.61097 15.5886 6.61324 20.3899C6.61399 21.9384 7.53916 23.0958 8.9878 23.3651C9.17162 23.3992 9.36301 23.4052 9.55137 23.4052C14.3822 23.4075 19.213 23.4067 24.0439 23.4067C24.118 23.4067 24.1921 23.4067 24.3139 23.4067C24.2443 23.3182 24.2065 23.2592 24.1588 23.2108C23.7261 22.7751 23.2897 22.3439 22.8585 21.9067C22.2586 21.2984 22.2351 20.4739 22.7964 19.9111C23.3358 19.371 24.1899 19.3921 24.7731 19.9731C26.0372 21.2326 27.3012 22.4929 28.5509 23.7676C28.7408 23.962 28.852 24.2343 28.9995 24.4703C28.9995 24.6595 28.9995 24.8486 28.9995 25.0377C28.88 25.4295 28.6251 25.7238 28.3399 26.0067C27.2067 27.1301 26.0894 28.2709 24.9494 29.3866C24.6929 29.6378 24.3661 29.8171 24.0726 30.0296C23.8457 30.0319 23.6195 30.0319 23.3925 30.0319Z" fill="black"/>
<path d="M28.9991 16.9832C28.9658 17.0596 28.931 17.1353 28.8993 17.2124C28.6564 17.7964 28.046 18.1467 27.4415 18.0476C26.7993 17.9424 26.3182 17.4121 26.2864 16.7646C26.2751 16.5384 26.2826 16.3115 26.2826 16.0845C26.2826 12.9762 26.2834 9.86709 26.2819 6.75874C26.2811 4.9243 25.0639 3.70789 23.231 3.70789C19.9487 3.70714 16.6663 3.70865 13.384 3.70714C12.5406 3.70638 11.9172 3.09213 11.9558 2.29102C11.983 1.73199 12.2697 1.3356 12.7751 1.09731C12.8583 1.05797 12.9438 1.02242 13.0277 0.985352C16.6716 0.985352 20.3148 0.985352 23.9587 0.985352C24.0117 1.00199 24.0639 1.02696 24.1184 1.03377C26.4687 1.35451 28.3062 3.01572 28.8561 5.3222C28.9083 5.53931 28.9522 5.75869 28.9999 5.97731C28.9991 9.64544 28.9991 13.3143 28.9991 16.9832Z" fill="black"/>
<path d="M10.2237 10.7883C11.5165 10.2762 12.6777 10.4789 13.7217 11.3564C14.9789 10.2709 16.4919 10.3216 17.5396 10.9691C18.5283 11.5803 19.0608 12.4813 19.0828 13.644C19.1085 15.0525 19.0926 16.4611 19.0888 17.8704C19.0873 18.4877 18.6561 18.9257 18.0699 18.9234C17.4874 18.9211 17.06 18.4816 17.0577 17.859C17.0516 16.4505 17.0592 15.0412 17.0532 13.6326C17.0509 13.1084 16.7211 12.6916 16.2218 12.5418C15.7475 12.3996 15.2119 12.5637 14.9585 12.9957C14.8269 13.2196 14.7474 13.5071 14.7436 13.7673C14.7232 15.138 14.7353 16.5087 14.7323 17.8802C14.7315 18.3341 14.5076 18.6541 14.0969 18.8319C13.7224 18.9937 13.2874 18.8954 13 18.6027C12.7738 18.3727 12.6997 18.089 12.6997 17.7736C12.7019 16.4028 12.708 15.0314 12.6974 13.6606C12.6906 12.8066 11.8592 12.2521 11.0944 12.5864C10.6005 12.8028 10.3788 13.206 10.3788 13.7385C10.378 15.1191 10.3833 16.4997 10.3758 17.8795C10.3728 18.5225 9.91206 18.9552 9.29327 18.9196C8.84619 18.8939 8.46644 18.5671 8.38021 18.1268C8.36054 18.0255 8.3507 17.9203 8.3507 17.8174C8.34919 15.7091 8.34692 13.6009 8.3507 11.4926C8.35146 10.8609 8.68506 10.4486 9.24107 10.3632C9.56181 10.314 9.85986 10.4418 10.2237 10.7883Z" fill="black"/>
<path d="M23.1698 11.8187C23.4149 11.8187 23.66 11.8119 23.9043 11.8202C24.3847 11.8361 24.7728 12.2015 24.8144 12.666C24.859 13.1683 24.57 13.666 24.0874 13.6857C22.9126 13.7341 21.7295 13.7636 20.5585 13.6781C19.8164 13.6237 19.5743 12.6577 20.1084 12.0926C20.5426 11.6326 20.9995 11.1939 21.4458 10.7461C21.8324 10.358 22.2166 9.96765 22.607 9.58412C22.7991 9.39576 22.8544 9.18243 22.7371 8.94263C22.6372 8.73914 22.461 8.63021 22.231 8.6476C21.967 8.66803 21.796 8.81554 21.737 9.07728C21.6334 9.5357 21.3807 9.8451 20.8943 9.90789C20.2566 9.99034 19.7301 9.43434 19.836 8.79814C20.0085 7.7648 20.8474 6.94932 21.9073 6.78441C22.9058 6.62934 23.9308 7.1513 24.418 8.0621C24.9165 8.99407 24.769 10.0894 24.0284 10.8641C23.7372 11.1689 23.427 11.4556 23.1259 11.7507C23.1411 11.7741 23.1554 11.796 23.1698 11.8187Z" fill="black"/>
</svg>
