<svg width="28" height="29" viewBox="0 0 28 29" fill="none" xmlns="http://www.w3.org/2000/svg">
<path d="M10.5586 0.0078125C11.0512 0.227799 11.2178 0.609303 11.2171 1.14355C11.2054 6.20981 11.2098 11.2761 11.2098 16.3416C11.2098 16.4498 11.2098 16.5579 11.2098 16.6931C11.0936 16.6983 10.9964 16.707 10.8992 16.707C7.36405 16.7078 3.82966 16.7078 0.294533 16.7063C0.196599 16.7063 0.097934 16.6836 0 16.6712C0 11.3543 0 6.03733 0 0.720392C0.116936 0.388586 0.339115 0.153983 0.656304 0.0078125C3.95683 0.0078125 7.25808 0.0078125 10.5586 0.0078125ZM7.0856 14.8032C7.56869 14.8032 8.05105 14.8083 8.53415 14.8017C9.07205 14.7951 9.41848 14.4597 9.4119 13.9649C9.40532 13.4796 9.06621 13.1624 8.53488 13.1602C7.58769 13.1558 6.64051 13.1565 5.69333 13.1602C5.14519 13.1624 4.80461 13.4803 4.80388 13.978C4.80388 14.4743 5.14665 14.7966 5.69187 14.8024C6.15596 14.8068 6.62078 14.8032 7.0856 14.8032Z" fill="black"/>
<path d="M0 18.3703C0.100127 18.3645 0.199522 18.3528 0.299649 18.3528C3.82747 18.3521 7.35528 18.3521 10.8831 18.3521C10.981 18.3521 11.079 18.3521 11.2156 18.3521C11.2156 21.6116 11.2156 24.842 11.2156 28.0724C7.69586 28.0724 4.17681 28.0724 0.657035 28.0724C0.339846 27.9255 0.117667 27.6916 0.000730851 27.3598C0 24.3633 0 21.3668 0 18.3703Z" fill="black"/>
<path d="M12.8567 28.0722C12.8545 24.8856 12.853 21.6999 12.8516 18.5134C12.8516 18.4695 12.8596 18.4264 12.8647 18.3687C15.1143 18.3687 17.3499 18.3687 19.6163 18.3687C19.6163 18.5024 19.6163 18.6186 19.6163 18.7355C19.6163 21.7298 19.6163 24.7249 19.617 27.7192C19.617 27.8368 19.6317 27.9545 19.6397 28.0722C17.3792 28.0722 15.1179 28.0722 12.8567 28.0722ZM16.8172 23.4744C17.3448 23.4751 17.7293 23.0951 17.7344 22.5674C17.7388 22.0543 17.3383 21.6509 16.8237 21.6494C16.3078 21.648 15.9043 22.0485 15.9065 22.5608C15.9087 23.0892 16.2909 23.4736 16.8172 23.4744Z" fill="black"/>
<path d="M21.2809 28.0724C21.2722 27.9825 21.2561 27.8926 21.2561 27.8027C21.2546 24.7522 21.2546 21.7016 21.2554 18.651C21.2554 18.5618 21.2649 18.4734 21.2707 18.3711C23.5159 18.3711 25.7428 18.3711 27.9997 18.3711C27.9997 18.4968 27.9997 18.6035 27.9997 18.7109C27.9997 21.4421 27.9916 24.1726 28.0062 26.9038C28.0092 27.4417 27.863 27.8466 27.3536 28.0724C25.3291 28.0724 23.3054 28.0724 21.2809 28.0724ZM23.8104 21.6497C23.3003 21.649 22.8837 22.0626 22.8895 22.564C22.8961 23.088 23.2864 23.4739 23.8097 23.4746C24.3352 23.4746 24.724 23.0895 24.7284 22.5647C24.732 22.0575 24.3235 21.6504 23.8104 21.6497Z" fill="black"/>
<path d="M12.8594 16.6885C12.8594 15.9292 12.8594 15.191 12.8594 14.4192C13.9067 14.4192 14.9489 14.4192 16.0371 14.4192C16.0371 14.0991 16.0276 13.8119 16.0393 13.5247C16.0627 12.9378 16.5348 12.5797 17.0837 12.7222C17.4338 12.8128 17.6611 13.0986 17.6728 13.4852C17.6823 13.7768 17.675 14.0684 17.675 14.3827C18.3254 14.3827 18.9576 14.3827 19.6102 14.3827C19.6183 14.3242 19.6329 14.2643 19.6329 14.2044C19.6344 13.0167 19.6395 11.8298 19.6322 10.6422C19.6278 9.87043 18.9956 9.40561 18.3028 9.65921C17.8723 9.81708 17.7078 10.1628 17.6742 10.5976C17.6296 11.164 17.1831 11.4915 16.6488 11.3592C16.2885 11.27 16.032 10.966 16.043 10.5786C16.081 9.27844 16.8228 8.35318 17.96 8.05134C19.1425 7.73781 20.3864 8.24648 20.9375 9.27698C21.175 9.72207 21.2715 10.2022 21.2729 10.7014C21.2766 11.8247 21.2744 12.948 21.2744 14.0714C21.2744 14.1708 21.2744 14.2694 21.2744 14.3864C21.9395 14.3864 22.5812 14.3864 23.2513 14.3864C23.2513 14.1021 23.2484 13.8302 23.2521 13.559C23.2594 13.0423 23.5941 12.6871 24.0699 12.6871C24.5457 12.6871 24.8811 13.0416 24.8899 13.559C24.8943 13.8309 24.8906 14.1021 24.8906 14.4046C25.4264 14.4046 25.9343 14.4046 26.4422 14.4046C26.679 14.4046 26.9166 14.3981 27.1534 14.4097C27.6006 14.4317 27.9478 14.7233 27.9799 15.1698C28.0158 15.6668 27.988 16.1689 27.988 16.6871C22.9444 16.6885 17.9176 16.6885 12.8594 16.6885Z" fill="black"/>
</svg>
