<svg xmlns="http://www.w3.org/2000/svg" version="1.1" xmlns:xlink="http://www.w3.org/1999/xlink" width="95" height="96"><svg width="95" height="96" viewBox="0 0 95 96" fill="none" xmlns="http://www.w3.org/2000/svg">
<path d="M80.5273 0.819046C88.3434 0.8193 94.6815 7.15724 94.6816 14.9733V81.0261C94.6816 88.8423 88.3435 95.1811 80.5273 95.1814H14.4736C6.65745 95.1812 0.319336 88.8423 0.319336 81.0261V14.9733C0.319451 7.15721 6.65752 0.819247 14.4736 0.819046H80.5273ZM52.4502 71.3796C52.4169 71.9053 52.3437 72.1916 52.0908 72.3913H51.8379V73.9421H52.7041V73.1833H55.0342V73.9421H55.8994V72.3913H55.4268V69.322H52.5771L52.4502 71.3796ZM23.9951 69.2282C22.9466 69.2282 22.2604 69.8956 22.1787 71.0212L22.1709 71.2663C22.1711 72.5311 23.0564 73.2897 23.9951 73.2897C24.9337 73.2896 25.5992 72.6903 25.6924 71.8249H24.7539C24.6607 72.2244 24.5006 72.4772 23.9746 72.4772C23.4555 72.4771 23.129 72.025 23.1289 71.2663C23.1289 70.5075 23.5752 70.0546 23.9746 70.0544C24.3741 70.0544 24.6807 70.3073 24.7539 70.7067H25.6924C25.6192 69.8413 25.1134 69.2283 23.9951 69.2282ZM48.7822 69.2282C47.7337 69.2282 47.0475 69.8956 46.9658 71.0212L46.958 71.2663C46.9582 72.5311 47.8435 73.2897 48.7822 73.2897C49.721 73.2897 50.3863 72.6904 50.4795 71.8249H49.541C49.4478 72.2244 49.2877 72.4772 48.7617 72.4772C48.2427 72.477 47.9171 72.0249 47.917 71.2663C47.917 70.5076 48.3624 70.0547 48.7617 70.0544C49.1612 70.0544 49.4678 70.3073 49.541 70.7067H50.4795C50.4063 69.8412 49.9007 69.2282 48.7822 69.2282ZM34.7939 69.2487C33.6555 69.2487 32.9365 70.0076 32.9365 71.2526C32.9365 72.4976 33.6555 73.2565 34.7939 73.2565C35.9324 73.2565 36.6514 72.4777 36.6514 71.2526C36.6514 70.0276 35.9258 69.2487 34.7939 69.2487ZM67.0049 69.2487C65.8664 69.2487 65.1475 70.0076 65.1475 71.2526C65.1475 72.4977 65.8664 73.2565 67.0049 73.2565C68.1432 73.2564 68.8623 72.4776 68.8623 71.2526C68.8623 70.0277 68.1366 69.2489 67.0049 69.2487ZM57.2842 72.1853C57.1577 72.3714 56.9575 72.404 56.7979 72.404C56.6432 72.404 56.5697 72.3856 56.5654 72.3845V73.1638C56.5654 73.1638 56.2058 73.2038 56.9512 73.2038C57.6968 73.2038 58.057 72.8042 58.3633 72.0651L59.5146 69.3015H58.5029L57.8164 71.2722H57.7969L57.0713 69.3015H56.0596L57.2842 72.1853ZM25.9453 70.114H26.9912V73.1833H27.9492V70.114H28.9951V69.322H25.9453V70.114ZM29.5078 73.1833H30.4668V72.0446H31.0986C31.9309 72.0446 32.5107 71.5253 32.5107 70.6931C32.5106 69.8612 31.9711 69.3222 31.1592 69.322H29.5078V73.1833ZM37.1709 73.1833H38.0957L39.6279 70.82H39.667V73.1833H40.6191V69.322H39.7012L38.1631 71.6853H38.1299V69.322H37.1709V73.1833ZM41.2324 73.1833H42.084V70.7663H42.1045L43.0234 73.1306H43.582L44.501 70.7663H44.5215V73.1833H45.3662V69.322H44.2686L43.3096 71.7917H43.2959L42.3369 69.322H41.2324V73.1833ZM59.9209 73.1833H64.6143V69.322H63.6621V72.3913H62.7373V69.322H61.7979V72.3913H60.8799V69.322H59.9209V73.1833ZM69.3887 69.322V73.1833H70.3066L71.8389 70.82H71.8584V73.1833H72.8174V69.322H71.8984L70.3672 71.6853H70.3467V69.322H69.3887ZM34.7871 70.0407C35.3264 70.0407 35.6729 70.5336 35.6729 71.2526C35.6728 71.9783 35.3264 72.444 34.7871 72.444C34.2413 72.4439 33.9014 71.9916 33.9014 71.2526C33.9014 70.5137 34.2479 70.0408 34.7871 70.0407ZM66.998 70.0407C67.5373 70.0408 67.8838 70.5336 67.8838 71.2526C67.8838 71.9783 67.5373 72.444 66.998 72.444C66.4521 72.444 66.1123 71.9916 66.1123 71.2526C66.1123 70.5136 66.4588 70.0407 66.998 70.0407ZM54.4678 72.3913C54.448 72.3913 53.0762 72.3906 53.0762 72.3708C53.2226 72.191 53.2964 71.9049 53.3164 71.4655L53.4023 70.114H54.4678V72.3913ZM30.9053 70.0808C31.3246 70.0808 31.5585 70.2938 31.5586 70.6931C31.5586 71.0925 31.3181 71.3064 30.9053 71.3064H30.4727V70.0808H30.9053ZM70.1475 68.2702C70.1476 68.796 70.5473 69.1218 71.1064 69.1218C71.6654 69.1216 72.0643 68.7959 72.0645 68.2702H71.5254C71.5252 68.523 71.3452 68.6696 71.1123 68.6696C70.8796 68.6695 70.7003 68.5229 70.7002 68.2702H70.1475ZM26.8311 34.8474V29.3747H22.1641V37.6306L14.4541 42.1774L16.7842 46.3122L22.1641 43.1364V67.0046H26.8242V56.9118H30.9258V67.0046H44.9004V43.1364H30.9258V53.0368H26.8242V40.3806L47.4971 27.6169L72.8301 43.1228H58.8555V51.2126L55.207 54.948L58.8555 58.6823V66.9714H72.8369V43.1032L78.2168 46.279L80.5469 42.1442L47.5039 22.0847L26.8311 34.8474ZM49.541 66.9851H54.2021V59.6882L51.4717 56.8913H49.541V66.9851ZM40.2402 62.2048H35.5791V47.8835H40.2402V62.2048ZM68.1768 62.2048H63.5156V47.8835H68.1768V62.2048ZM49.541 53.0105H51.4717L54.2021 50.2136V43.1169H49.541V53.0105Z" fill="#F59E11"></path>
</svg><style>@media (prefers-color-scheme: light) { :root { filter: none; } }
@media (prefers-color-scheme: dark) { :root { filter: none; } }
</style></svg>