<svg width="235" height="235" viewBox="0 0 235 235" fill="none" xmlns="http://www.w3.org/2000/svg">
<path d="M27.9422 163.193C28.076 151.463 30.4621 140.291 34.6992 130.055C23.1254 125.35 11.5515 120.622 0 115.894V164.197C9.21 164.197 18.4423 164.197 27.6523 164.197C27.7415 163.862 27.8307 163.528 27.9422 163.193Z" fill="#F49C19"/>
<path d="M67.9935 89.7585C49.5735 68.7071 31.1534 47.6557 12.7334 26.6042C4.72765 37.4199 0 50.7554 0 65.1614V104.187C13.0233 109.784 26.0467 115.382 39.0923 120.979C46.0723 108.379 56.0182 97.6751 67.9935 89.7585Z" fill="#F49C19"/>
<path d="M111.167 75.241C111.434 50.1533 111.702 25.0878 111.97 0H65.1614C47.9679 0 32.2908 6.75698 20.6055 17.751C39.8952 39.7613 59.1849 61.7717 78.4746 83.8043C88.4651 78.9652 99.5037 75.9993 111.167 75.241Z" fill="#F49C19"/>
<path d="M206.233 162.747C206.367 163.238 206.523 163.706 206.656 164.197C216.089 164.197 225.545 164.197 234.978 164.197V115.627C223.159 120.466 211.317 125.283 199.498 130.122C203.69 140.202 206.054 151.196 206.233 162.747Z" fill="#F49C19"/>
<path d="M195.127 121.023C208.418 115.315 221.709 109.606 235 103.897V65.1613C235 50.5769 230.139 37.0629 221.977 26.1804C203.423 47.388 184.847 68.5955 166.293 89.803C178.224 97.7196 188.147 108.446 195.127 121.023Z" fill="#F49C19"/>
<path d="M155.812 83.8266C175.213 61.6825 194.614 39.5383 214.015 17.3719C202.374 6.62317 186.853 0 169.838 0H122.339C122.606 25.0878 122.874 50.1533 123.142 75.241C134.782 76.0216 145.821 79.0098 155.812 83.8266Z" fill="#F49C19"/>
<path d="M220.103 211.183H14.8965C26.8717 225.701 44.9795 235 65.1612 235H169.839C189.998 235 208.128 225.701 220.103 211.183Z" fill="#516DB5"/>
<path d="M149.434 178.313V151.062C149.434 149.412 148.565 147.895 147.137 147.07C141.629 143.881 127.58 135.742 119.976 131.192C117.077 129.453 113.486 129.475 110.587 131.215L84.0276 147.182C82.7565 147.94 81.976 149.322 81.976 150.794V178.335H0.580078C1.58359 185.917 3.88051 193.076 7.27015 199.61H227.753C231.142 193.076 233.439 185.895 234.443 178.335H149.434V178.313Z" fill="#3C702C"/>
<path d="M129.275 117.79C137.058 122.451 151.865 131.036 156.213 133.556C162.435 137.169 166.293 143.881 166.293 151.062V166.851H194.971C194.971 125.194 160.696 90.9182 119.039 90.9182C77.3821 90.9182 43.1289 125.171 43.1289 166.828H67.6592V150.772C67.6592 143.859 71.3387 137.347 77.2706 133.779L103.83 117.812C111.68 113.107 121.425 113.085 129.275 117.79Z" fill="#EC5B15"/>
</svg>
