<svg width="235" height="235" viewBox="0 0 235 235" fill="none" xmlns="http://www.w3.org/2000/svg">
<path d="M4.55762 198.179C13.5394 219.718 34.8542 234.955 59.5652 234.955H70.4908L84.3432 198.179H4.55762Z" fill="#3C702C"/>
<path d="M44.9534 161.113C44.9534 161.068 44.9534 161.001 44.9534 160.956H44.9311C39.5465 161.023 34.1396 161.023 28.755 161.023C24.5993 161.023 20.4659 161.023 16.3101 161.046C13.0258 161.068 10.8809 159.862 9.56266 157.337L9.29454 156.845V153.762L9.47328 153.338C11.082 149.539 12.3778 145.518 13.6067 141.608C14.0982 140.044 14.6121 138.502 15.126 136.938C22.0745 116.182 29.0008 95.4255 35.9046 74.6691L44.7747 48.0814C45.1768 46.8302 45.7354 45.1322 47.4781 44.0374C48.9751 43.0766 50.6731 42.8532 52.2371 43.4118C53.9575 44.015 55.2757 45.445 55.946 47.4558C57.644 52.4605 59.3197 57.4653 60.9954 62.4701L64.3915 72.636L69.1058 58.5154C72.2114 49.2432 75.2947 39.971 78.378 30.6765C78.7802 29.4476 79.6515 26.8782 82.4891 26.0292C85.5723 25.1131 88.4322 26.7888 89.594 30.2073C91.3144 35.3014 93.0348 40.4179 94.7328 45.5343L95.5819 48.059C95.8723 47.1653 96.1851 46.294 96.4756 45.4226L111.624 0H59.5655C26.8112 0 0 26.8112 0 59.5655V169.089H44.9311C44.9534 166.43 44.9311 163.772 44.9534 161.113Z" fill="#2C6D5C"/>
<path d="M133.81 30.1179C135.821 36.1057 137.809 42.1159 139.82 48.1037L145.585 30.8105C145.696 30.4754 145.808 30.1179 145.92 29.7828C147.216 26.4537 149.763 25.8951 151.17 25.8728C153.807 25.8281 155.817 27.2804 156.711 29.8945C157.918 33.4469 159.102 37.0218 160.286 40.5966L170.988 72.636L178.897 48.9751C179.076 48.3942 179.277 47.8356 179.478 47.2547C180.417 44.6183 182.383 43.2107 184.952 43.2107C187.544 43.233 189.465 44.7076 190.359 47.3664L191.878 51.902C192.839 54.7618 193.8 57.6217 194.761 60.5039L225.281 152.086C225.638 153.137 226.711 156.376 225.013 158.722C223.337 161.046 220.008 161.046 218.913 161.046H211.853C204.86 161.068 197.598 161.068 190.493 160.979H190.471C190.471 161.023 190.471 161.068 190.471 161.135C190.493 163.794 190.471 166.453 190.493 169.112H235V59.5655C234.977 26.8112 208.166 0 175.412 0H123.733C125.096 4.13339 126.482 8.24444 127.867 12.3555L133.81 30.1179Z" fill="#2C6D5C"/>
<path d="M145.473 178.026V147.73C141.362 145.406 127.219 137.206 119.757 132.738C118.439 131.956 116.785 131.956 115.467 132.738L90.5328 147.73V178.026H0.0673828C0.246124 181.869 0.782348 185.623 1.65371 189.242H87.6953H147.529H233.302C234.174 185.623 234.71 181.869 234.889 178.026H145.473Z" fill="#5E3F32"/>
<path d="M97.8159 200.414L84.8125 234.978H149.718L137.295 200.414H97.8159Z" fill="#F49C19"/>
<path d="M44.932 135.687V131.755V131.42C44.9097 130.526 44.9096 129.185 45.781 127.889C47.2333 125.767 49.4899 124.896 51.9699 125.543C54.5393 126.191 56.0586 128.292 56.081 131.129V133.52C56.1033 138.971 56.1033 144.401 56.0586 149.852C56.9077 149.808 57.712 149.785 58.5163 149.785C59.5217 149.785 60.4825 149.83 61.4209 149.897C61.4879 149.897 61.5549 149.897 61.5996 149.897C61.6443 149.83 61.6666 149.718 61.7337 149.562C64.5488 140.826 66.9842 133.587 69.3525 126.75C69.8217 125.409 69.844 124.404 69.4419 123.197C64.9063 109.68 60.3931 96.1405 55.8799 82.6009L50.7634 67.2738C50.6741 67.028 50.607 66.7823 50.5177 66.5142L46.2949 79.1824C38.4303 102.732 30.5657 126.303 22.6787 149.852C29.8284 149.83 37.3802 149.808 44.9543 149.875C44.9097 145.138 44.9097 140.424 44.932 135.687Z" fill="#14662D"/>
<path d="M163.95 234.978H175.411C200.1 234.978 221.415 219.74 230.419 198.202H150.745L163.95 234.978Z" fill="#3C702C"/>
<path d="M56.0576 160.957C56.08 163.66 56.0576 166.363 56.08 169.089H81.5953V160.957H81.3048H72.122C66.7597 160.979 61.3975 160.979 56.0576 160.957Z" fill="#3C702C"/>
<path d="M75.8972 106.709L77.6175 101.592C81.5722 89.8178 85.5045 78.0655 89.4815 66.3133C89.5709 66.0228 89.5932 65.7771 89.3698 65.1515L87.3366 59.0296C86.2641 55.8122 85.1917 52.5949 84.1193 49.3999L83.4937 51.299C79.1815 64.2578 74.8471 77.2165 70.5349 90.1752C70.4679 90.3763 70.4902 90.421 70.5126 90.5551C72.2776 95.8726 74.0651 101.213 75.8972 106.709Z" fill="#085629"/>
<path d="M155.171 160.957H154.411V169.089H179.323C179.323 166.386 179.323 163.682 179.346 160.957C174.296 160.979 169.247 160.979 164.22 160.957H155.171Z" fill="#3C702C"/>
<path d="M165.96 126.549C168.574 134.257 171.166 141.965 173.713 149.696C173.735 149.763 173.758 149.83 173.78 149.875C175.701 149.763 177.578 149.741 179.366 149.852C179.299 145.294 179.299 140.714 179.321 136.156V132.023C179.321 129.654 179.879 127.956 181.041 126.817C182.024 125.856 183.343 125.432 184.996 125.387C187.029 125.409 190.47 126.303 190.47 131.911L190.492 136.313C190.515 140.647 190.537 145.138 190.448 149.584C190.448 149.696 190.448 149.808 190.448 149.897C190.515 149.897 190.604 149.897 190.693 149.897C196.1 149.808 201.485 149.83 206.892 149.83H212.701L186.001 69.8209C185.644 68.7261 185.264 67.609 184.884 66.5142L165.58 124.337C165.491 124.627 165.424 125.007 165.67 125.745L165.96 126.549Z" fill="#14662D"/>
<path d="M156.198 96.7887C157.293 100.051 158.388 103.29 159.505 106.664L159.639 106.24C161.27 101.347 162.901 96.4535 164.554 91.5605C164.867 90.6444 164.867 90.0412 164.599 89.2368C162.521 83.1373 160.51 77.0378 158.477 70.9159L155.64 62.3586C154.21 58.0912 152.78 53.8461 151.283 49.3999C149.451 54.9185 147.708 60.2137 145.898 65.4643C145.787 65.7994 145.854 66.0452 146.122 66.9165L156.198 96.7887Z" fill="#085629"/>
<path d="M76.9267 149.919H80.5909H80.8144H81.574V147.462C81.574 144.512 83.138 141.719 85.6851 140.2L110.843 125.074C111.267 124.828 111.692 124.605 112.139 124.404V122.952C112.139 122.348 112.139 121.745 112.139 121.12C112.139 121.008 112.116 120.896 112.094 120.784C112.027 120.583 111.893 120.36 111.558 119.98C106.307 114.484 101.057 108.965 95.851 103.424C94.4657 101.95 93.7508 100.207 93.8401 98.5087C93.9072 97.0565 94.5998 95.7159 95.7392 94.7328C98.1969 92.6326 101.481 93.0572 104.095 95.85C106.754 98.6875 109.435 101.525 112.116 104.363V102.128C112.116 96.2075 112.116 90.2867 112.116 84.3435C112.116 82.5114 112.586 80.9921 113.479 79.875C114.462 78.6461 115.937 77.9759 117.635 77.9759C117.635 77.9759 117.635 77.9759 117.657 77.9759C120.986 77.9759 123.154 80.4782 123.176 84.3435C123.176 88.9908 123.176 93.6604 123.176 98.3077V104.452C124.003 103.581 124.807 102.709 125.611 101.86C126.304 101.123 126.997 100.363 127.689 99.6035C129.007 98.1513 130.348 96.699 131.711 95.3137C134.057 92.9231 137.297 92.722 139.62 94.7999C141.832 96.766 142.011 100.073 140.067 102.664C139.732 103.111 139.352 103.513 138.972 103.916L135.442 107.692C131.555 111.847 127.667 115.981 123.757 120.114C123.556 120.338 123.422 120.516 123.332 120.74C123.198 121.008 123.131 121.298 123.131 121.7L123.154 124.449C123.556 124.627 123.936 124.806 124.316 125.052C131.733 129.498 145.831 137.675 149.987 140.066C152.713 141.63 154.389 144.557 154.389 147.707V149.919H155.394H155.796H158.835C159.885 149.919 160.935 149.919 161.985 149.919C156.265 132.894 150.568 115.869 144.893 98.8439L136.314 73.1498C130.102 54.5384 123.891 35.9046 117.657 17.2932L73.4189 149.919C74.5808 149.919 75.7649 149.919 76.9267 149.919Z" fill="#14662D"/>
</svg>
