<svg width="235" height="235" viewBox="0 0 235 235" fill="none" xmlns="http://www.w3.org/2000/svg">
<path d="M33.8715 56.8844C45.1545 58.3813 55.2981 64.3915 62.5594 73.3286C64.8607 64.4362 69.2175 56.1024 75.3841 49.1538C85.416 37.8261 99.3578 31.0786 113.612 30.6541C137.698 30.0062 159.638 46.5844 167.279 70.3347C178.585 65.2852 201.285 58.2696 224.655 69.1728C228.498 70.9603 231.894 73.0828 234.955 75.3171V59.5655C234.978 26.8112 208.166 0 175.412 0H59.5655C26.8112 0 0 26.8112 0 59.5655V66.9386C9.54031 59.2527 21.6277 55.2757 33.8715 56.8844Z" fill="#A6D1FF"/>
<path d="M59.5648 234.978H175.411C200.011 234.978 221.236 219.874 230.307 198.47H4.66895C13.7401 219.852 34.9656 234.978 59.5648 234.978Z" fill="#5F91FF"/>
<path d="M6.50171 127.509C6.50171 124.113 8.31147 120.941 11.216 119.198L36.5749 103.96C41.1328 101.212 46.8079 101.212 51.3658 103.938C58.4931 108.205 71.8316 115.936 77.2162 119.064C79.808 120.561 81.573 123.13 82.0869 126.035V117.522C82.0869 114.126 83.8967 110.954 86.8012 109.211L112.16 93.9731C116.718 91.225 122.393 91.225 126.951 93.9508C134.056 98.1959 147.394 105.949 152.801 109.077C155.907 110.864 157.828 114.216 157.828 117.79V131.822H159.258V111.199C159.258 107.803 161.068 104.631 163.973 102.888L189.332 87.6502C193.89 84.902 199.565 84.902 204.122 87.6278C211.25 91.8953 224.588 99.6258 229.973 102.754C233.079 104.541 235 107.893 235 111.467V90.1079C231.135 86.1532 226.219 82.2432 219.963 79.3387C194.739 67.5641 169.268 81.6847 166.453 83.3157L159.616 87.315L158.141 79.5398C153.919 57.3982 134.972 41.1998 113.948 41.8254C102.754 42.1605 91.7613 47.5228 83.7403 56.5715C75.0043 66.4246 70.8485 79.1376 72.055 92.3198L61.1295 94.3753C57.0855 80.3218 45.5567 69.709 32.4192 67.9663C19.952 66.3129 7.64119 72.4348 0 82.8912V148.132H6.50171V127.509Z" fill="#3C702C"/>
<path d="M70.8709 168.441V158.454H146.456V152.109H223.628V112.182C217.863 108.831 205.195 101.503 198.269 97.3468C197.308 96.7659 196.124 96.7659 195.141 97.3468L170.586 112.115V143.149H146.456V118.505C139.597 114.528 127.8 107.669 121.097 103.67C120.136 103.089 118.952 103.089 117.969 103.67L93.4146 118.438V149.472H70.8709V128.492C65.1065 125.141 52.4382 117.813 45.512 113.657C44.5512 113.076 43.3671 113.076 42.384 113.657L17.8518 128.448V159.482H0V168.463H70.8709V168.441Z" fill="#F49C19"/>
<path d="M234.978 175.412V163.481H157.806V169.804H82.2209V179.791H0.178711C0.357452 182.338 0.692592 184.841 1.20647 187.298H233.771C234.553 183.455 234.978 179.478 234.978 175.412Z" fill="#756F6D"/>
</svg>
