<svg width="40" height="40" viewBox="0 0 40 40" fill="none" xmlns="http://www.w3.org/2000/svg">
<circle cx="20" cy="20" r="19" fill="#F59E11" stroke="white" stroke-width="2"/>
<path fill-rule="evenodd" clip-rule="evenodd" d="M10.9188 13.759H12.6817V15.8301L20.5013 11L33 18.5917L32.1186 20.1564L30.0837 18.9545V27.9874H24.7951V24.8505L23.415 23.4369L24.7951 22.0234V18.9621H30.0812L20.4987 13.0938L12.6792 17.924V22.7138H14.2305V18.9671H19.5166V28H14.2305V24.1802H12.6792V28H10.9163V18.9671L8.88143 20.169L8 18.6043L10.9163 16.8834V13.7741V13.759H10.9188ZM28.3208 20.7636H26.558V26.1833H28.3208V20.7636ZM21.2719 18.9595V22.7037H22.0022L23.0348 21.6455V18.9595H21.2719ZM23.0348 27.9849V25.2309L22.0022 24.1727H21.2719V27.9924H23.0348V27.9849ZM17.7537 20.7636H15.9908V26.1833H17.7537V20.7636Z" fill="white"/>
</svg>
